<svg id="Layer_1" data-name="Layer 1" xmlns="http://www.w3.org/2000/svg" viewBox="0 0 507 130"><defs><style>.cls-1,.cls-2{fill:#331c0b;}.cls-2{font-size:24.71px;font-family:Oakwood-Clean, Oakwood;}.cls-3{letter-spacing:-0.02em;}</style></defs><path class="cls-1" d="M54,122.74l-6.16,3.19a2.71,2.71,0,0,1-.79.31c-.42.22-.63,0-.64-.41l.08,0c.53-1.23-.11-2.06-.84-3.05-4.22-4.89-8.27-9.87-12.41-14.8-7.29-8.58-14.54-17.28-21.84-25.86C10.15,80.71,9,79.22,7.72,77.85a5.46,5.46,0,0,0-3.09-2.09l-.38-.12c-.42-.2-.47-.5,0-.71l4.57-2.37a.51.51,0,0,1,.59.11c.68.71,1.28,1.45,1.92,2.07,1.28,1.45,2.47,2.94,3.75,4.4.26.28.55.45.27.91a.36.36,0,0,0,.17.55c.26.08.42,0,.38-.3,0-.13.12-.17.25.08,1.54,2,3.28,3.68,4.69,5.8a3.26,3.26,0,0,1,.64.83c.13,0,.22.21.05.3s-.25.12-.42,0-.34-.45-.46-.29c-.29.26,0,.51.26.71l.81,1a.5.5,0,0,0,.76.24.89.89,0,0,1,.92.36c.47.5,1,.95,1.54,1.53a1.93,1.93,0,0,1,.64.83c0,.29.42.21.55.45l1.7,2.08c0,.08.22.2,0,.29-.41.43.09.59.35.67s.5.37.76.66a38.89,38.89,0,0,1,4.35,5.14c.34.45.85.82.86,1.45,0,.21.34.25.55.45.64.63,1.19,1.29,1.87,2,.22.21.43.41.39.75a.13.13,0,0,0,.09.17c1,.53,1.41,1.7,2.21,2.44a1.52,1.52,0,0,1,.48,1.34c-.08.25.26.5.6.53.75,0,.93.79,1.36,1.2.17.12-.13.17-.25.13s-.3,0-.38.3.09.37.22.41c.3.17.46.08.59-.09s.29-.25.42,0,.63.41.26.71-.16.5,0,.71.29.16.38.33c.34.24.55.24.54-.18s.08-.25.25-.13a11.07,11.07,0,0,1,1.66,1.78c.26.29.05.5-.11.8a.52.52,0,0,0,0,.55c.21.2.33,0,.5,0a.73.73,0,0,1,1.06.61c0,.21-.08.46-.12.8a2.41,2.41,0,0,0,1.42,2.75,2.36,2.36,0,0,0,2.85-.42,6.52,6.52,0,0,1,1.62-1,36.79,36.79,0,0,0,5.79-2.89c.42-.21.67-.13.72.37a1.78,1.78,0,0,0,1.23,1.37c.38.12.8.11.81.53s-.42.43-.67.56c-2.2,1.24-4.41,2.28-6.57,3.4Zm-41-58.88L18.42,61l.84-.43c.37-.09.54,0,.55.45a2.32,2.32,0,0,1-.28.89,1.5,1.5,0,0,0,.35,1.5c1.37,1.62,2.82,3.19,4.23,4.89L38.05,84.85c1.7,1.23,2.86,3.06,4.26,4.55.77.87,1.5,1.87,2.26,2.74,0,.08.18.33.34.24s0-.33,0-.42c-.85-3.46-1.78-6.89-2.71-10.32a13,13,0,0,1-.8-3.17,1,1,0,0,0-.13-.46,2.84,2.84,0,0,1-.61-1.38,71,71,0,0,0-2.34-8.81.1.1,0,0,0,0-.13,6.26,6.26,0,0,0-2.41-4,27.77,27.77,0,0,1-2.85-3.07c-.17-.12-.39-.33-.3-.58a.57.57,0,0,0-.09-.37c-1.07-1.25-2.14-2.49-3.82-2.89-.25-.08-.63-.2-.68-.49s.29-.47.54-.59l12-6.21a.67.67,0,0,1,.71-.05c.22.2.13.45,0,.71-.48,1.09,0,1.8.71,2.59,5.93,7,11.69,14,17.66,20.84q2.75,3.18,5.75,6.21c.25.29.39.75.85.83a2.28,2.28,0,0,0-.19-1.17l-1.51-6c-.57-2.34-1.24-4.64-2-7-.66-1.88-.9-4-1.39-5.94s-.89-4-1.55-5.85a56.33,56.33,0,0,1-1.87-7.9,13.64,13.64,0,0,0-.89-3.34.83.83,0,0,0-.68-.49L56,42.74c-.33,0-.67-.07-.68-.49s.29-.47.54-.6l9.58-4.95,2.33-1.21c.29-.05.5-.26.71-.05s.13.46,0,.71a7,7,0,0,0,0,4.44c4.71,18.89,9.85,37.78,14.72,56.58.31,1,.74,1.83,1.79,2,.26.08.43.2.43.41s-.25.34-.37.51l-.08,0c-2.63,1.26-5,2.88-7.49,4.3a4.87,4.87,0,0,1-2.21.83.58.58,0,0,0-.38.09,12.4,12.4,0,0,1-3.29,1.81c0,.12-.25.13-.33.17-.25.13-.54.39-.8.1s0-.55.16-.72a2.18,2.18,0,0,0-.41-2.64,55.27,55.27,0,0,1-4.81-5.21,17.7,17.7,0,0,1-1.16-1.83c-.18-.33-.55-.45-.68-.7-.77-.87-1.54-1.74-2.18-2.57-.94-1-1.79-2-2.77-3.11-.68-.7-1.32-1.53-1.92-2.28-.17-.12-.3-.37-.38-.33s0,.34.05.5c1.15,4.48,2.35,9,3.46,13.63.62,2.21,1.24,4.42,1.82,6.76a1.75,1.75,0,0,0,1.28,1.45c.25.08.79.12.8.54s-.5.47-.75.6l-.08,0c-2.54,1.21-4.83,2.71-7.32,4a36,36,0,0,1-4,2,5.59,5.59,0,0,0-1.88,1.07.78.78,0,0,1-.66.14.42.42,0,0,1-.1-.59.35.35,0,0,1,0-.21,2.51,2.51,0,0,0-.67-2.71,23.12,23.12,0,0,0-3.62-3.94,2,2,0,0,1-.47-.91,1.8,1.8,0,0,0-1.15-1.2,1.45,1.45,0,0,1-.81-1,1.3,1.3,0,0,0-.39-.75,12.26,12.26,0,0,1-2.64-2.86,21.49,21.49,0,0,0-1.67-2.2c-.38-.54-1.06-.82-1.44-1.36a44.87,44.87,0,0,0-3-3.94l-.18-.34c-2.12-2.06-3.79-4.47-5.71-6.75l-1.53-1.53a52.34,52.34,0,0,1-4.31-5.27c-.69-.91-1.54-1.74-2.26-2.73-1.11-1.33-2.3-2.61-3.41-3.94-1.41-1.7-3-3.31-4.31-5.06-.47-.49-.81-1.16-1.28-1.65a5.17,5.17,0,0,0-3-1.85c0-.08-.13,0-.17-.12-.26-.08-.51-.16-.51-.37s.2-.43.37-.51Zm2.47,6c-.08,0-.46-.08-.41.22a.41.41,0,0,0,.42.41c.13,0,.17.12.26.08a5,5,0,0,1,1.13-.27.38.38,0,0,0,.41-.42c0-.21-.17-.34-.51-.37A2,2,0,0,0,15.4,69.86Zm2.8,13.55c-.09-.17-.22-.21-.34,0s-.29.26-.16.51.26.29.38.12A.43.43,0,0,0,18.2,83.41Zm2.93-9.23A1.19,1.19,0,0,0,19.32,74c-.12.17.05.29.17.33a2.36,2.36,0,0,1,1.1.49c.21,0,.42.2.59-.09S21.21,74.35,21.13,74.18Zm-1.25-2.41c.21.21.38.54.8.32s.41-.42.28-.88A.5.5,0,0,0,20.2,71,.62.62,0,0,0,19.88,71.77Zm2.37,4.58a.35.35,0,0,0-.51-.16c-.16.08-.29.25-.2.42a.42.42,0,0,0,.55.24A.34.34,0,0,0,22.25,76.35ZM23,77.76c-.08-.16-.09-.37-.38-.33-.13,0-.29,0-.42.22s0,.42.18.54.17.13.13.25-.16.51.17.54.25-.33.42-.42A.79.79,0,0,0,23,77.76Zm.9-1.52c-.16.09-.2.21-.16.3a.69.69,0,0,0,.84.2c.25-.13.29-.26.12-.38C24.47,75.94,24.14,76.32,23.88,76.24Zm1,4.14c-.08-.17-.21-.42-.46-.29a.75.75,0,0,0-.11,1c.08.17.3.58.59.33S25,80.76,24.86,80.38Zm0-1.38a.22.22,0,0,0,.08-.26c-.13-.25-.3-.16-.47-.07s-.16.08-.08.25S24.72,79.08,24.89,79Zm1,3.29a.34.34,0,0,0-.43-.2c-.16.09-.08.25,0,.34s.17.33.33.24A.25.25,0,0,0,25.86,82.29Zm1.17.24c-.12,0-.17-.12-.25-.08-.25.34,0,.63,0,.84s.09.16.17.12C27.12,83.12,27,82.78,27,82.53Zm1.31-20.11a15,15,0,0,0,1.87-1.07.57.57,0,0,1,.85.2c1.36,1.61,2.85,3.06,4.34,4.51.21.2.42.41.13.67s-.16.71.31.79c.29,0,.29.16.38.33.8,3,1.72,6,2.43,9a57.71,57.71,0,0,0,1.94,6.81c0,.21.18.33,0,.42s-.17-.13-.34-.25A26.09,26.09,0,0,0,37.83,81a1.9,1.9,0,0,1-.47-.91l-1.25-4.85a6.42,6.42,0,0,0-1.46-2.62c-1.66-2-3.41-3.94-5.07-5.93a5.6,5.6,0,0,0-3.22-2.13c-.25-.08-.51-.16-.55-.46s.28-.46.53-.59Zm.24,16.78c0-.09-.22-.42-.38-.33s-.17.29-.12.37c.13.25.3.38.55.25C28.71,79.44,28.75,79.32,28.58,79.2Zm3.25,10.14c.37-.09.45-.55.78-.72.21,0,.25-.13.17-.3s-.17-.12-.34,0a3.88,3.88,0,0,1-1.34.27c-.12,0-.25.13-.24.34A.64.64,0,0,0,31.83,89.34Zm2.53-1.63a1.73,1.73,0,0,1,.58-.51c.08,0,.17-.09.12-.17s-.16-.12-.25-.08c-.25.13-.37.3-.71.26-.12,0-.21,0-.33.17s0,.21.17.34S34.19,87.8,34.36,87.71Zm.51,3.43a.33.33,0,0,0,.16-.5.43.43,0,0,0-.59-.12.34.34,0,0,0-.16.5C34.41,91.27,34.62,91.27,34.87,91.14Zm2,2.87c.25-.13.46-.34.29-.47s-.51-.58-.89-.49a.44.44,0,0,0-.2.63A.57.57,0,0,0,36.88,94Zm.41,1.79c-.13-.24-.26-.49-.51-.37s-.29.26-.16.51.42.62.8.53C37.55,96.51,37.29,96,37.29,95.8ZM37.65,92a.37.37,0,0,0-.42,0,.26.26,0,0,0-.12.38c.09.17.17.12.34,0A.41.41,0,0,0,37.65,92Zm1.26,3a1.59,1.59,0,0,0,.54-.39c.08-.25.29-.46.07-.67s-1.43-.31-1.59,0-.58.72-.23,1.18.67.07,1,0ZM36.42,58c.21.21.25.5.59.33s.33-.38.16-.72-.47-.28-.64-.2C36.16,57.53,36.33,57.86,36.42,58Zm2.44,39.39c0,.21.17.33.42.2a.51.51,0,0,0,.16-.71c-.13-.25-.3-.38-.51-.16S38.69,97.09,38.86,97.42Zm2.31-2.89c-.09-.16-.17-.12-.26-.08-.2.22-.33.39-.2.64s.22.2.3.16C41.34,95.08,41.09,94.79,41.17,94.53Zm1,4.77c.16-.3,0-.55,0-.84a.26.26,0,0,0-.38-.12.7.7,0,0,0-.2.84C41.65,99.35,41.86,99.35,42.16,99.3ZM40.23,57.64c.12-.17.37-.3.16-.5s-.38-.12-.51,0-.58.3-.49.46S39.85,57.73,40.23,57.64Zm2.19,45.22a7.65,7.65,0,0,1,1,1.08.21.21,0,0,0,.25.08.25.25,0,0,0,.12-.38.52.52,0,0,1,0-.55c.25-.55,0-.83-.47-1.12-.26-.08-.43-.42-.67-.08S42.41,102.44,42.42,102.86ZM40.84,62.5c.17-.09.21-.21.08-.46a.25.25,0,0,0-.38-.12c-.25.12-.29.25-.16.5S40.67,62.58,40.84,62.5Zm1.93,35.74c-.12.17-.33.39-.12.59a.45.45,0,0,0,.64.2.44.44,0,0,0,.2-.63C43.36,98.15,43.06,98.2,42.77,98.24Zm1.62,16.59c-.17.08-.21.21,0,.33s.13.25.3.17a.42.42,0,0,0,.08-.47C44.56,114.74,44.47,114.78,44.39,114.83ZM44.64,100c-.13-.25-.26-.5-.59-.33s-.5.47-.37.72a.5.5,0,0,0,.76.24A.4.4,0,0,0,44.64,100ZM42.32,66a.61.61,0,0,0-.3-.17c-.17.09-.16.3-.08.47a.21.21,0,0,0,.25.08A.26.26,0,0,0,42.32,66ZM44.38,105l.08.17a2.18,2.18,0,0,0,1.64-.11.7.7,0,0,0,0-.41c-.3-.38-.34-.67.16-.93a.38.38,0,0,0,.11-.59c-.21-.21-.42,0-.54.18a1,1,0,0,1-.91.47C44.57,103.75,44.16,104.6,44.38,105ZM43.54,72.4c0,.29.21.42.46.29a.85.85,0,0,0,.33-.81.62.62,0,0,0-.76-.24C43.15,71.86,43.54,72.19,43.54,72.4ZM47.26,101c.21,0,.16-.09.2-.21s-.17-.13-.29-.17c-.43-.2-.93.06-1.39,0a.4.4,0,0,0-.41.22c-.13.17,0,.33.13.46s.25.08.42,0a1.37,1.37,0,0,1,1.25-.23ZM44.61,68.15c.46-.13.41-.43.41-.64s-.13-.46,0-.63.17-.29,0-.33-.34,0-.46.13a1.81,1.81,0,0,1-.62.85c-.2.21-.45.34-.28.67s.46.08.67.08Zm-.73,1.64a.7.7,0,0,0,.63.41.17.17,0,0,0,.25-.12c.08-.26-.09-.38-.17-.55a.88.88,0,0,0-.3-.37c0-.08-.13-.25-.21-.21s-.25.13-.25.34A.69.69,0,0,0,43.88,69.79Zm3.57,29.94c.2-.21.5-.26.62-.64s.08-.46-.09-.58-.47-.08-.59.09a1.58,1.58,0,0,1-.75.6c-.16.08-.33.17-.28.46a.44.44,0,0,0,.63.2A.69.69,0,0,0,47.45,99.73Zm0,7.72a.25.25,0,0,0,.12-.38.24.24,0,0,0-.38-.12.28.28,0,0,0,.26.5Zm-1.31-27.2a.24.24,0,0,0-.38-.12c-.24.13,0,.42,0,.63s.13.25.3.16A.86.86,0,0,0,46.12,80.25Zm2.28,24.37c.2-.21.49-.47.28-.67s-.55-.25-.84-.41c-.12.38-.54.59-.41.84C47.65,104.8,48.06,104.59,48.4,104.62Zm-.54-2.46c-.09-.17-.17-.13-.34,0a.34.34,0,0,0-.16.5.2.2,0,0,0,.34,0C47.82,102.49,48,102.41,47.86,102.16ZM45.85,73a.25.25,0,0,0-.12.38.61.61,0,0,0,.68.28c.16-.09.16-.3,0-.34C46.32,73.07,46.19,72.82,45.85,73Zm.22-2.86a.36.36,0,0,0-.17.51.74.74,0,0,0,.56.45c.21,0,0-.34,0-.42a.74.74,0,0,0-.09-.38C46.27,70.14,46.15,70.1,46.07,70.14Zm.87,14.75c-.16.09-.08.25,0,.34,0,.29.25.29.5.16.09,0,.25-.13.17-.3A.6.6,0,0,0,46.94,84.89Zm-.44-7.58a.28.28,0,1,0,.5-.26c-.09-.17-.25-.29-.42-.21S46.37,77.06,46.5,77.31Zm3,16.94L50,95c.34.25.64.62,1,.24s0-.63-.22-.84-.51-.58-.14-.88c.08,0,.16-.29,0-.33-.47-.08-.6-.75-1.23-.74-1,.1-1.38.4-1.78,1.66-.12.17-.33.38,0,.54s.42,0,.58-.09.25-.34.2-.63.29-.46.58-.51.38.12.38.33A.89.89,0,0,0,49.47,94.25ZM46.94,66.52c.25-.13.37-.3.16-.5a.56.56,0,0,1,.07-.89l.16-.29c.13-.17.17-.3,0-.34s-.21,0-.25.13a6.91,6.91,0,0,1-.87,1c-.29.25-.2.42-.07.67S46.6,66.69,46.94,66.52Zm2.74,40c-.21-.21-.17-.54-.46-.29s-.59.31-.41.64.38.33.63.2S49.81,106.74,49.68,106.49ZM48,78.63c.12-.17.42-.22.24-.55s-.37-.12-.5,0-.75.18-.54.59C47.45,78.93,47.74,78.67,48,78.63ZM49,71.69c-.09-.16-.21-.2-.3-.16-.29,0-.54.18-.58.51a2,2,0,0,1-.82,1.06c-.33.17-.2.42,0,.5l.76.24c.21,0,.25.09.25.29s-.16.3-.29.26c-.54,0-.71,0-.32.59,0,0-.13.17-.08.26s-.25.33-.08.46.38.12.54,0,.17-.29.08-.46a.8.8,0,0,1,.2-.63c.46-.34.45-.76.19-1.26a1,1,0,0,1,.2-1.26C48.9,72,49.07,71.86,49,71.69Zm-.79,18.47c.18.33.64.62,1,.44s.29-.25.12-.37-.17-.34-.09-.59-.17-.54-.47-.5C48.1,89.15,47.89,89.57,48.19,90.16Zm.72-2.7c.5-.26,1-.93,1-1.23s-.72-.36-1.14-.15a.93.93,0,0,0-.48,1.1C48.36,87.43,48.58,87.64,48.91,87.46Zm.28-3.94a.23.23,0,0,0-.38.09l-.53.59c-.13.17-.17.3,0,.42a.31.31,0,0,0,.38.12C48.87,84.74,49.28,83.68,49.19,83.52Zm.37,14.17c-.05-.09-.17-.13-.34,0s-.25.13-.16.3a.31.31,0,0,0,.38.12A.26.26,0,0,0,49.56,97.69ZM49.71,76c0-.08-.17-.33-.38-.12a5,5,0,0,1-1.17.39c-.16.09-.37.3-.24.55a.35.35,0,0,0,.55.25c.17-.09.42-.22.58-.1a.49.49,0,0,0,.67-.13C49.93,76.59,49.88,76.29,49.71,76Zm1.49-7.11c-.38-.75-.72-.78-1.55-.56a2.43,2.43,0,0,1-1.22.1c-.34,0-.59-.12-.71.26s.34.46.64.41a.85.85,0,0,1,.76.45c.13.46.38.33.63.2s.29-.25.33-.38c.29-.26.54-.39.79-.1a.54.54,0,0,0,.34,0C51.33,69.1,51.29,69,51.2,68.85Zm.22,42.23a2.37,2.37,0,0,0,.74-1.23c0-.21,0-.29-.17-.33a.37.37,0,0,0-.42,0,4.26,4.26,0,0,0-.74,1.22c.05.09.05.3.18.34S51.21,111.08,51.42,111.08Zm0-6.67a.75.75,0,0,0-.05-.5.25.25,0,0,0-.38-.12c-.17.08-.17.29-.08.46S51.16,104.46,51.46,104.41Zm-1-17.09c-.05-.09-.17-.13-.21,0s-.38.3-.25.55c0,.08.22.2.26.08C50.47,87.82,50.42,87.53,50.42,87.32Zm-1-16.68c-.24.13-.37.3-.16.5a.61.61,0,0,0,.64.21.29.29,0,0,0,.07-.47C49.8,70.63,49.63,70.51,49.38,70.64Zm1.81,26.73c0,.42.34.46.68.49.12,0,.3.38.46.08,0-.13-.21-.21-.3-.37-.38-.33-.38-.54.11-.8a.91.91,0,0,0,.38-.3.26.26,0,0,0,.12-.38.24.24,0,0,0-.42,0,2.68,2.68,0,0,1-.75.39C50.93,96.66,50.89,96.79,51.19,97.37Zm-.47-12.32a.42.42,0,0,0,.08-.47c0-.21-.21-.2-.38-.12s-.08.26,0,.34S50.51,85.05,50.72,85.05Zm2,27.82c.37-.09.41-.22.24-.55a.35.35,0,0,0-.51-.16c-.2.21-.41.42-.28.67S52.5,113,52.67,112.87ZM51.12,74.6a.35.35,0,0,0-.51-.16c-.33.17-.2.42-.07.67a.24.24,0,0,0,.34.25C51.29,75.14,51.12,74.81,51.12,74.6Zm.8,12.15a.41.41,0,0,0-.46-.08,1,1,0,0,0-.2.63c.08.17.25.29.38.12A.58.58,0,0,0,51.92,86.75Zm-.9-16-.25.13a.91.91,0,0,0-.28.68c0,.08.17.12.29.16a.46.46,0,0,0,.59-.3c.08,0,.16-.09.12-.17.12-.17.33-.38.2-.63S51.27,70.61,51,70.74Zm4.88,36.75-.13-.25c-.08-.16-.13-.46-.42-.41s-.25.34-.25.55a.58.58,0,0,1-.66.55c-.21,0-.5,0-.58.31a.44.44,0,0,1-.54.17c-.17-.12-.3,0-.34.17s-.2.43-.07.47c.42.2.63.62,1,.86.17.13.3,0,.42,0s.33-.18.46-.14A1.6,1.6,0,0,0,55.9,107.49ZM54.48,95.77a.35.35,0,0,0-.51-.16c-.5.26-.59-.12-.67-.49-.09-.17,0-.42-.06-.72s-.51-.57-.71-.36a1,1,0,0,0-.41.84c0,.3.34.46.59.54s.47.08.47.5.39.75.44,1.25c-.09,0,0,.08.17.12s.54,0,.76.24.29,0,.25-.13ZM53.07,100a.45.45,0,0,0,.2-.64c-.08-.16-.17-.33-.29-.16a.71.71,0,0,0-.25.76C52.82,100.11,52.9,100.07,53.07,100Zm-.6-9.94c-.21.22-.25.34-.12.59s.26.29.42.21.12-.38.12-.59S52.68,90.05,52.47,90.05Zm1,2.76a.28.28,0,0,0-.46-.08,1.41,1.41,0,0,1-.41.43s-.17.08-.13.17.21,0,.3,0a.48.48,0,0,0,.42,0C53.48,93.23,53.6,93.06,53.47,92.81ZM52.18,72.36a.37.37,0,0,0-.42,0c-.17.08-.29.25-.12.38s.17.12.33,0S52.18,72.57,52.18,72.36ZM54.6,107c-.05-.08-.09-.17-.17-.12-.34,0-.38.29-.63.42a.32.32,0,0,0-.12.38l0,.09a.33.33,0,0,0,.46-.14C54.27,107.39,54.64,107.3,54.6,107Zm-.15-1.3a.24.24,0,0,0-.38-.12A.26.26,0,0,0,54,106c0,.21.17.12.38.12A.3.3,0,0,0,54.45,105.71Zm-.8-24a.34.34,0,0,0-.5-.16.45.45,0,0,0-.2.64c.12.25.29.16.54,0A.34.34,0,0,0,53.65,81.73Zm1.18,18.19c.54-.18.62-.43.45-.76s-.38-.33-.5-.16c-.34.17-.75.38-.54.8S54.75,100,54.83,99.92Zm-.43-51a5.54,5.54,0,0,1,1.09-.56c.58-.3.58-.3.71.37a51,51,0,0,0,1.17,5.51,76.43,76.43,0,0,1,2.17,7.86c.49,1.75.68,3.55,1.29,5.35a45.13,45.13,0,0,1,1.45,4.84c0,.21.22.42,0,.5s-.29-.16-.46-.28a23.55,23.55,0,0,1-2.39-3A10.71,10.71,0,0,1,59,67.9L55,52.23a2.19,2.19,0,0,0-1.66-1.78c-.25-.08-.5-.16-.51-.37s.21-.42.46-.55Zm2.89,35.35c-.12.17-.54.18-.41.43s.46.08.59-.09a1.25,1.25,0,0,1,.88-.14c.21,0,.37.12.46-.13s.08-.26-.05-.3a.42.42,0,0,0-.51-.16A3.29,3.29,0,0,1,57.29,84.28Zm.32-7.55c-.09-.17-.18-.33-.43-.2s-.16.29-.07.46a.25.25,0,0,0,.38.12A.31.31,0,0,0,57.61,76.73ZM59.1,78.6c-.58.3-.83.85-.65,1.18s.93.57,1.22.32a.65.65,0,0,0,.28-.89C59.78,78.88,59.48,78.51,59.1,78.6Zm16.61,32.89-6.41,3.32c-.33.17-.71.47-1,.18s-.14-.67,0-1a1.93,1.93,0,0,0-.49-2c-1.32-1.53-2.56-3.11-3.88-4.64a4.48,4.48,0,0,1-1-2c-.7-2.38-1.32-4.8-2-7.22L60.88,98a.48.48,0,0,1,.25-.55c.25-.13.37-.09.59.11a10.92,10.92,0,0,1,1.49,1.87,25.7,25.7,0,0,0,2.35,2.9c.21.21.34.46,0,.72a.34.34,0,0,0,0,.5c.17.12.43.41.71.16s.38-.09.59.11a3.9,3.9,0,0,1,1.16,1.41s-.09,0,0,.09c.76.24.39.75.23,1.25a2.34,2.34,0,0,0,.66,2.51,2.21,2.21,0,0,0,2.57.46l4.7-2.12c1.34-.69,2.67-1.38,4-2.15.33-.17.58-.09.67.28a1.75,1.75,0,0,0,1.37,1.41c.25.08.58.12.59.54s-.33.38-.58.51c-2.2,1.25-4.41,2.28-6.66,3.45ZM63.09,85.08c-.17-.12-.34-.45-.51-.58-.25-.29-.5-.16-.71,0s-.2.64.18.76a5.52,5.52,0,0,0,.92.15C63.18,85.46,63.18,85.25,63.09,85.08Zm.4,1.59a1.76,1.76,0,0,0-.54,0c-.26-.09-.46-.08-.59.09a.37.37,0,0,0,0,.42.61.61,0,0,0,.59.32c.46-.13.71-.26.53-.8.47.08.42-.22.46-.55-.05-.09,0-.21-.22-.21s-.2.42-.2.63A.09.09,0,0,1,63.49,86.67Zm-.43,2c.17-.09.21-.21.16-.3s-.25-.29-.42-.2-.25.13-.12.17S62.89,88.77,63.06,88.69Zm.66-3.83a.42.42,0,0,0-.08.47.35.35,0,0,0,.51.16.39.39,0,0,0-.43-.63ZM62.58,46.17c.18.33.27.71.64.62s.5-.47.41-.84a1.21,1.21,0,0,1,.2-.64c.24-.54.07-.88-.47-.91A.84.84,0,0,1,62.6,44c-.05-.09-.17-.13-.34,0s0,.13.05.29a1.68,1.68,0,0,1,.09,1A1.28,1.28,0,0,0,62.58,46.17Zm3.55,58.24a4.93,4.93,0,0,0,.81,1c.09.16.22.41.39.33s0-.3,0-.42,0-.21.12-.38,0-.42-.21-.42a3.8,3.8,0,0,1-.81-.32c-.12,0-.25-.08-.29,0S66.13,104.41,66.13,104.41Zm-.08-11.57c-.08-.17-.25-.29-.42-.2s-.2.21-.12.38.22.41.47.28S66.14,93,66.05,92.84ZM63.42,48.59c.25-.13.24-.34.07-.46s-.21-.21-.46-.08c-.08,0-.12.17,0,.34S63.25,48.68,63.42,48.59ZM65.86,91c-.12.17-.41.22-.33.59,0,.21.22.21.38.12a.62.62,0,0,0,.41-.63C66.24,91,66.11,90.91,65.86,91ZM63.65,53.12c-.17.08-.17.29-.08.46s.13.25.42.2.17-.29.08-.46S63.81,53,63.65,53.12Zm2.54,31.41.13,0a2.56,2.56,0,0,0,1.5-.14.27.27,0,0,0,.17-.3c0-.08-.17-.12-.34,0a6.51,6.51,0,0,1-1.34.28C66.19,84.32,66.1,84.37,66.19,84.53Zm3.63,5c-.21-.21-.38-.13-.59-.12-.62,0-1.42.31-2-.35a.51.51,0,0,0-.42,0c-.12.17-.08.26,0,.42a.54.54,0,0,0,.25.29c.34.25.93.16,1.06.83a1.07,1.07,0,0,0,.29,0c.29-.25.46-.13.64.2s.84.2.79-.09C70,90.27,69.54,90,69.82,89.52Zm-1.69,2-.53.6c-.17.29-.08.46.09.58s.46.08.58-.09a1.2,1.2,0,0,0,.2-.84c0-.13.13-.17,0-.21S68.22,91.51,68.13,91.55Zm-.21-24.07c.37-.09.5-.26.41-.63-.09-.17,0-.34.2-.42a.18.18,0,0,0,.25-.13.47.47,0,0,0-.34-.25c-.12,0-.33,0-.59-.12s-.37.09-.16.3a.59.59,0,0,1-.24,1c-.58.3-.41.63-.32,1,.09.16.09.37.3.37s.16-.29.12-.38A.83.83,0,0,1,67.92,67.48Zm1,2.67c-.17-.12-.38-.33-.63-.2s-.21.43-.16.72.34.24.59.12A.45.45,0,0,0,68.88,70.15Zm-.66-4.94a.86.86,0,0,0,.55.46c.3,0,.38-.3.5-.47a.86.86,0,0,0,0-.84c-.13-.25-.39-.54-.35-.87,0-.13-.09-.17-.21-.21-.38-.12-1,.39-.79.72S68.05,64.88,68.22,65.21Zm2.67,31.25a.38.38,0,0,1,0,.3c0,.5.39.54.68.49.46-.13.74-1,.44-1.6a.44.44,0,0,0-.63-.2c-.42.21-.75.39-1.09-.07-.17-.12-.34,0-.46.13s0,.29.25.29S70.63,96.17,70.89,96.46Zm-.81-21.75c0-.29-.1-.59-.47-.5s-.67.14-.67.56a5.61,5.61,0,0,0,.27,1.33.35.35,0,0,0,.39.33c.16-.08.33-.17.33-.38a1.24,1.24,0,0,0-.18-.54.57.57,0,0,1,.33-.8,3.32,3.32,0,0,0,.86,1.45c.08.17.21.21.42.21s.33-.17.28-.47a1.43,1.43,0,0,1,.16-.71c.12-.38-.18-1-.51-.79S70.41,74.54,70.08,74.71Zm.27,10.52c-.58.3-.7.89-.19,1.26.17.13.38.33.63.2s.16-.29.12-.59c0-.08,0-.21,0-.33s.12-.38,0-.51S70.56,85.23,70.35,85.23Zm2.41-7.37c-.21-.21-.47-.71-1-.66a.84.84,0,0,1-1.14-.36c0-.08-.13-.25-.29-.16s-.13.16-.13.37,0,.3-.2.43-.41.42-.24.75a5.46,5.46,0,0,1,0,3.82c0,.13-.08.25,0,.29a3.71,3.71,0,0,1,.72.79.41.41,0,0,0,.46.08.32.32,0,0,0,.08-.46.58.58,0,0,1,.32-.81c.25-.12.59-.3.5-.46a2.77,2.77,0,0,1,.1-1.64,1.05,1.05,0,0,0-.34-.88c-.22-.2-.14-.46.07-.67s.46-.13.59.12.25.29.46.08A.57.57,0,0,0,72.76,77.86Zm-2.85-5.92c-.09-.16-.17-.33-.34-.24a2.25,2.25,0,0,0,0,1.38.1.1,0,0,0,.13,0c.29-.05.46.08.75.24a.27.27,0,0,0,.42-.21c.12-.17,0-.34-.17-.34A.8.8,0,0,1,69.91,71.94Zm.33,11.45c-.17.08-.08.25,0,.33s.13.25.3.17.08-.26,0-.34S70.41,83.3,70.24,83.39Zm3.21,13.54c.25-.13.33-.38.16-.72s-.3-.16-.46-.07a.48.48,0,0,0-.24.75C73,97.14,73.2,97.06,73.45,96.93Zm.69,4c.16-.08.37-.09.33-.38a.92.92,0,0,0-1.1-.28c-.21,0-.33.18-.2.43S73.8,101.08,74.14,100.9ZM71.87,71.24c-.25.13-.41.22-.33.39s.3.37.47.28a.63.63,0,0,0,.41-.63C72.29,71,72,71.28,71.87,71.24ZM73,85.11a.24.24,0,0,0-.38-.12.91.91,0,0,0-.11.59.25.25,0,0,0,.38.12A.42.42,0,0,0,73,85.11Zm1.41-4a.52.52,0,0,0,.21-.43c-.09-.16-.17-.33-.38-.33s-.42,0-.5.26c0,.42-.29.47-.58.51-.09,0-.42,0-.29.26s.21.21.5.16A5.19,5.19,0,0,1,74.44,81.11ZM73,74.25a1,1,0,0,0-.29-.38c0-.08-.09-.16-.17-.12l-.09,0c.39.54.14,1.09.32,1.63,0,.09.21.21.3.17s.12-.17.2-.21A1.53,1.53,0,0,0,73,74.25Zm1.39,3.29a.24.24,0,0,0-.38-.12c-.29.26-.45.55-.28.88a.31.31,0,0,0,.38.13A1.13,1.13,0,0,0,74.39,77.54Zm1.13,23.18c.16-.09.08-.26,0-.42s-.17-.34-.29-.17-.17.3-.12.59C75.14,100.81,75.35,100.8,75.52,100.72Zm-.89-21.5c-.09-.17-.22-.21-.43-.21s-.12.17-.16.3.25.08.38.12S74.63,79.42,74.63,79.22Zm.73,18.94c.17.12.17.33.38.33s.33-.17.45-.34L76.64,97a.57.57,0,0,0-.26-.71c-.3-.17-.84-.2-.88.14A2.74,2.74,0,0,0,75.36,98.16ZM76,99c-.17.09-.29.26-.12.38s.34.25.59.12a.26.26,0,0,0,.12-.38A.47.47,0,0,0,76,99Zm.69,1.54c.25-.13.58-.3.49-.68s-.38-.12-.54,0-.54.38-.5.68S76.48,100.53,76.69,100.53Zm.68-8.06c-.16.09-.12.17,0,.34s.12.25.29.16.21-.21.12-.38A.24.24,0,0,0,77.37,92.47Z"/><path class="cls-1" d="M103.44,92.69l-6.53,1.73c-.27.07-.54.15-.71-.1a.58.58,0,0,1,.11-.71,3.56,3.56,0,0,0,.47-3.33c-4.9-18.1-9.68-36.14-14.46-54.17a10.85,10.85,0,0,0-.46-1.73,3.08,3.08,0,0,0-1.62-2.09,1.46,1.46,0,0,1-.46-.26.43.43,0,0,1-.21-.43c0-.21.11-.32.29-.37l4.08-1.08c.36-.1.55.24.62.51.22,1.2.6,2.27.73,3.49.44,2,1.18,4.06,1.7,6.05.77,2.9,1.61,5.69,2.38,8.59.92,3.83,1.63,7.62,2.82,11.38.64,2.06,1.11,4.17,1.73,6.14,1,2.94,1.38,5.94,2.24,8.81S97.9,81,98.67,83.87a2.22,2.22,0,0,1-.27,1.91,2.49,2.49,0,0,0,.06,2.8,2.4,2.4,0,0,0,2.7,1,18.43,18.43,0,0,1,2.18-.58,33.2,33.2,0,0,0,4.19-1c.45-.12.66-.08.87.35a2.88,2.88,0,0,0,1.48,1.55l.34.2c.37.29.35.58-.1.7a4.21,4.21,0,0,1-1.06.38ZM90.72,22.43l6.53-1.73c.18-.05.52-.23.7.1s0,.48-.1.71c-.94,1.22-.69,2.51-.33,3.87q7.31,27,14.37,54.2l.34,1.27a3.25,3.25,0,0,0,1.69,2l.34.2c.14.16.35.2.33.5s-.23.25-.41.3l-2.26.6c-.82.21-1.61.52-2.45.65-1.29.24-2.44,1-3.74,1.28s-2.47.56-3.76.8l-1.18.32c-.18,0-.36.09-.5-.07a.42.42,0,0,1-.05-.56.09.09,0,0,1,.06-.12c.87-1.1.68-2.21.34-3.48-.76-3.59-2.17-7.09-2.93-10.67-.75-3.2-1.66-6.26-2.59-9.41a2,2,0,0,1-.08-1c.11-.32-.24-.52-.31-.79-.5-1.91-1.19-3.76-1.6-5.69-.25-1.29-.68-2.54-.92-3.83a2.41,2.41,0,0,1-.11-1.14c0-.38-.35-.58-.44-.94-.2-.73-.3-1.48-.49-2.2-.27-1.39-.7-2.63-1.06-4-.53-2-1.15-4-1.67-6-.77-2.51-1.33-5-1.91-7.55-.22-.81-.27-1.77-.49-2.58a3.39,3.39,0,0,0-1.76-2.25.21.21,0,0,1-.23-.14c-.23-.13-.46-.26-.42-.47s.29-.37.47-.41l4.27-1.13Zm.74,9c.28-.07.48,0,.66-.08s.32-.28.15-.52c-.32-.5-.8-.47-1.16,0-.13.23-.44.51-.28.76S91.26,31.41,91.46,31.45Zm.14-3.53c-.19,0-.48,0-.5.33s-.06.5.08.66.45-.12.63-.17c0,0,.07-.12.16-.14A.43.43,0,0,0,92.3,28C92.14,27.78,91.87,27.85,91.6,27.92Zm1.27,4.81a1.84,1.84,0,0,0-1-.6c-.27.07-.34.18-.27.46s.63.9.9.82S92.74,33,92.87,32.73Zm-.11,3.61A.24.24,0,0,0,93,36c0-.18-.16-.25-.32-.11s-.36.1-.31.28a.4.4,0,0,0,.43.18Zm.42-6.12.63-.17c.18-.05.31-.28.59-.35s.43-.21.44-.5a.68.68,0,0,0-.27-.32c-.23-.13-.37.1-.61.26L93,30c-.15.14-.79-.08-.67.38S92.9,30.29,93.18,30.22Zm1-3.86c0-.18-.1-.36-.39-.38s-.34.19-.38.39a1.37,1.37,0,0,1-.31.67c-.07.11,0,.2,0,.38a.32.32,0,0,0,.3,0C93.8,27.44,94.29,26.72,94.19,26.36Zm1.73,16c0-.1,0-.19-.14-.16a1.12,1.12,0,0,0-1.41.18c0,.09-.06.11,0,.2s.23.14.32.11a5.06,5.06,0,0,1,1.11-.2C95.88,42.6,96,42.58,95.92,42.4Zm-.55,3.05a.51.51,0,0,0-.64-.22.25.25,0,0,0-.2.35c.07.27.37.29.55.24S95.42,45.63,95.37,45.45Zm.2-1.8c-.15.14-.45.12-.38.39s.33.5.57.34.64-.17.52-.62-.41-.09-.71-.11Zm.45-7.1c-.09,0-.39,0-.32.28a.26.26,0,0,0,.35.2c.29,0,.56-.06.82.17s.09,0,.06-.12C96.91,36.6,96.68,36.47,96,36.55Zm1,10.9c.36-.09.54-.53.9-.62s.43-.22.27-.46-.35-.2-.6,0a5.19,5.19,0,0,0-.87.72c-.18.05-.23.25-.11.32S96.79,47.5,97,47.45Zm1.55,8.42-.18.05c-.29.37-.38.78-.8,1-.1,0,0,.29.09.36a.17.17,0,0,0,.27-.07,4.19,4.19,0,0,0,.81-1,.4.4,0,0,0,0-.3C98.64,55.93,98.61,55.84,98.52,55.87Zm-.33-6c.07.27.12.45.3.4s.63-.55.55-.83a.8.8,0,0,0-.77-.37C97.81,49.17,98.43,49.68,98.19,49.85Zm1.26,7.33a.25.25,0,0,0,.2-.35.28.28,0,1,0-.2.35Zm-.08-5.8c.11.06.09.36.34.2s.2-.35.15-.53a.24.24,0,0,0-.34-.2C99.34,50.9,99.3,51.1,99.37,51.38Zm4.27,11c0-.09,0-.09-.14-.16a2,2,0,0,1-.78-.37c-.82-.56-.89-.45-1.47.29l-.85,1.2c-.16.13-.34.18-.29.36s.35.2.53.16a.74.74,0,0,1,.82.17c.28.31.66.3.75-.11a1.8,1.8,0,0,1,1.3-1.31C103.6,62.57,103.69,62.55,103.64,62.37Zm-1.7-4.21c-.18.05-.36.1-.31.28a.51.51,0,0,0,.64.22c.2,0,.27-.07.13-.23A.35.35,0,0,0,101.94,58.16Zm2.76,14.41c0-.18-.12-.46-.37-.29s-.68.37-.58.73.36.29.55.24C104.75,73.13,104.79,72.93,104.7,72.57Zm-.83,2.74c0,.18.3.4.46.65a.35.35,0,0,0,.51.06c.18,0,.13-.23,0-.38a2.07,2.07,0,0,0-.28-.71c-.07-.27-.21-.42-.49-.35S103.86,74.92,103.87,75.31Zm1.06-7a.3.3,0,0,0-.34-.2c-.18.05-.34.19-.29.37s.16.25.34.2S104.89,68.54,104.93,68.33Z"/><path class="cls-1" d="M140.87,85.74l-13.09,2.45a12.75,12.75,0,0,0-1.94.36.55.55,0,0,1-.79-.14.79.79,0,0,1,.14-.79,3.45,3.45,0,0,0,.8-3.39l-10.35-55.3-.19-1A3,3,0,0,0,114,25.52l-.57-.46c-.11-.08-.33-.23-.27-.43a.57.57,0,0,1,.5-.38c1.29-.24,2.6-.39,3.87-.72a.5.5,0,0,1,.66.45,13.44,13.44,0,0,1,.8,3.28,24.93,24.93,0,0,0,.58,2.56c.46,2.49.93,5,1.21,7.5a29.1,29.1,0,0,0,1.15,5.61c.24.81.32,1.75.48,2.58.25,1.86.78,3.67,1.13,5.51.35,2.41.62,4.84,1.06,7.24.27.91.44,1.83.69,2.64a14.86,14.86,0,0,1,.56,3.52,25,25,0,0,0,1.27,5.77,25.8,25.8,0,0,1,.41,2.69c.25,1.86.6,3.71.87,5.66a1.56,1.56,0,0,1-.26,1.19,3.18,3.18,0,0,0-.83,2.16,2.53,2.53,0,0,0,3.19,2.26c2.65-.59,5.36-.9,8.09-1.6a25,25,0,0,1,5.84-.91,4.62,4.62,0,0,0,1.11-.2,15.18,15.18,0,0,1,4-.86c1.86-.25,3.72-.5,5.56-.85.72-.23.74-.13.86.51a8.87,8.87,0,0,1,.28,1.48,1,1,0,0,1-.92,1.22,7.06,7.06,0,0,1-1.37.35ZM125.1,16.28,131.74,15c.28,0,.54-.19.68.06s0,.48-.16.7a2.75,2.75,0,0,1-.6.88,2.71,2.71,0,0,0-.33,1.78c.07.37.14.73.22,1.2l8.52,45.52a12.48,12.48,0,0,0,.46,1.92.9.9,0,0,0,1,.68l.74-.14,13-2.43a3.05,3.05,0,0,0,2.46-1.61c.09,0,.08-.11.17-.12s.3-.44.5-.38.36.4.4.59c.38,2,.76,4,1.13,6.08l.9,4.79c.21,1.11-.09,1.55-1.2,1.75l-3,.56a2.1,2.1,0,0,0-1.42.55c0,.09-.17.13-.26.14a19.58,19.58,0,0,1-3.33.53c-.94.08-1.75.33-2.69.41a14.66,14.66,0,0,1-2.8.33c-.57,0-.95.56-1.52.57-1.67.22-3.35.44-5,.75a23.07,23.07,0,0,0-3.56.86,34.08,34.08,0,0,1-4.26.7,3.82,3.82,0,0,0-1.45.37c-.37.06-.74.13-.9-.22s.1-.49.25-.71c0-.09,0-.2.13-.31a2.9,2.9,0,0,0,.57-3.07A44.32,44.32,0,0,1,129.6,73a28,28,0,0,0-1-4.77,21.79,21.79,0,0,1-.73-4.92,14.66,14.66,0,0,0-.73-3.39,35.67,35.67,0,0,1-.91-4.32c-.15-1.31-.39-2.6-.54-3.9-.22-1.68-.71-3.31-1-5-.22-1.2-.36-2.42-.56-3.52a43.57,43.57,0,0,1-1.1-4.85,80.83,80.83,0,0,0-1.58-9.44,48.06,48.06,0,0,0-1.15-5.13c-.14-.73,0-1.52-.13-2.26a3.94,3.94,0,0,0-1.79-2.91c-.31-.13-.73-.34-.6-.65,0-.48.5-.38.87-.45Zm.2,9.7a.25.25,0,0,0-.33-.23c-.19,0-.17.13-.13.31s0,.28.25.34a.34.34,0,0,0,.21-.42Zm.14,4.84.21,1.1c.12.65.74.43,1.16.64.21.06.43-.27.49-.47.17-.61.71-.8,1.15-1s.48-.47.21-.9c-.52-.76-1.42-1-2.07-1.42-.33-.23-.47.08-.32.34s-.11,1,.53,1.33a.51.51,0,0,1-.06.68c-.17.13-.37.07-.39,0-.16-.35-.87-.6-.4-1.16a.29.29,0,0,0-.07-.37c-.13-.17-.31-.13-.5-.1s-.15.22-.11.4Zm2.64-5.75c-.12-.16-.23-.24-.31-.13-.42.27-.74.62-1.07.87-.17.13-.14.31.06.37.52.19.58-.49,1-.67C127.88,25.49,128.12,25.26,128.08,25.07Zm-.94-4c.28-.05.46-.08.3-.43,0-.19,0-.67-.4-.6s-.28.53-.3.92C126.77,21.12,127,21.09,127.14,21.05Zm1.68,16.1c.2.05.27,0,.24-.24l-.45-.87c-.16-.35-.55-.37-.92-.3-.18,0-.44.17-.31.34a1.26,1.26,0,0,1-.5,1.43c-.17.13-.11.4.11.55a.23.23,0,0,0,.35-.16C127.69,37.26,128.15,37.18,128.82,37.15ZM128,40.63a.41.41,0,0,0-.53-.28c-.19,0-.24.23-.21.42s.25.33.44.3a.34.34,0,0,0,.3-.44Zm.23-13c-.05-.27-.16-.35-.34-.31s-.35.16-.3.43A.25.25,0,0,0,128,28c.27-.05.35-.16.31-.35ZM127.9,44c.06.27.09.46.46.39.18,0,.33-.26.21-.42a.45.45,0,0,0-.55-.38C127.84,43.63,127.89,43.9,127.9,44Zm.45,2.39s.05.28.22.15.61-.3.71-.8a.35.35,0,0,0-.27-.43c-.31-.13-.37.07-.54.2A2.21,2.21,0,0,0,128.35,46.39Zm.79-12.64c-.19,0-.47.09-.41.36.17.45.62.27.93.4a.29.29,0,0,0,.22-.33A.8.8,0,0,0,129.14,33.75Zm1.14,8.18c-.05-.28-.21-.63-.67-.54s-.81.24-.82.72.64.84.91.79C130.15,42.72,130.39,42.48,130.28,41.93Zm-.41,1.89-.36.07c-.1,0-.37.07-.25.23s.21.06.3,0c.35-.16.48,0,.62.27s.14.26.42.21c.09,0,.17-.13.22-.33a.42.42,0,0,0-.17-.45A1.26,1.26,0,0,0,129.87,43.82Zm.68-5.57a1.25,1.25,0,0,0,.54-.19c.35-.16.3-.44.13-.79a.28.28,0,0,0-.42-.21c-.36.07-.31.35-.17.61a.29.29,0,0,1-.22.32c-.1,0-.28.06-.25.24S130.37,38.29,130.55,38.25Zm-.08,12.8c.05.28.08.46.38.5s.38,0,.42-.27c0-.48.36-.64.73-.71.09,0,.27,0,.26-.14a.29.29,0,0,0-.16-.35.75.75,0,0,0-.78,0c-.16.13-.24.24-.42.27C130.44,50.39,130.4,50.68,130.47,51.05Zm1,8.58a3.51,3.51,0,0,0,.37,1c.07.37.42.69.77.53s.17-.61,0-.87l0-.18c-.14-.26-.28-.52.16-.7.17-.12.22-.32-.1-.55a.32.32,0,0,1-.13-.17c-.23-.72-.8-.71-1.39-.79a.45.45,0,0,0-.59.4c0,.3.27.43.56.47s.5.1.29.52Zm-.4-6.69c.17-.13.15-.22.12-.41a.25.25,0,0,0-.33-.22c-.18,0-.26.14-.13.31S130.9,52.88,131.1,52.94Zm.54-13.46c-.11-.07,0-.48-.27-.43s-.24.24-.13.32-.09.58.3.61S131.67,39.67,131.64,39.48Zm-.29,5.11a.22.22,0,0,0-.15.22.43.43,0,0,0,.09.46c.2.06.42.21.36.41s.06.28.24.24.18,0,.26-.14.21-.42.08-.59A2,2,0,0,0,131.35,44.59Zm.43,9.94a.77.77,0,0,0-.47,1A.83.83,0,0,0,132,56c.11.07.23.24.49.1s0-.3-.08-.46a.33.33,0,0,1,0-.3c.15-.22.3-.44.06-.68S132.08,54.57,131.78,54.53Zm.1-7.65a.3.3,0,0,0-.23.32c0,.19.22.15.31.14s.28-.05.25-.24a.25.25,0,0,0-.33-.22Zm.89,15.47c-.55.11-.61.31-.62.79s.33.7.73.82a.22.22,0,0,0,.22.15c.07-.11,0-.19,0-.28-.34-.8-.34-.8.56-1.06.09,0,.08-.11.17-.13s.26-.14.24-.23-.24-.25-.4-.12S133.05,62.3,132.77,62.35Zm.15-9.37c.56-.11,1.13-.6,1.08-.87-.19-.54-.56-.47-.95-.49a1,1,0,0,0-.69.89C132.43,52.88,132.57,53.14,132.92,53Zm.75,12.64c0-.09-.15-.26-.24-.24a.69.69,0,0,0-.43.75.22.22,0,0,0,.22.15A.71.71,0,0,0,133.67,65.62Zm-.32-16A1.41,1.41,0,0,0,133,50a.35.35,0,0,0,.44.3c.19,0,.17-.13.13-.31s0-.28-.25-.34Zm.21,24.58c.13.16,0,.66.31.61s0-.48,0-.67,0-.66-.22-.62C133.26,73.61,133.62,74,133.56,74.23Zm1.2-12c-.28,0-.35.16-.21.42a.58.58,0,0,1,.1.55c-.13.31-.19.51.22.63s.45.39.67.54.18,0,.26-.14c0-.48.41-.84.22-1.38s-.25-.81-.86-.51a.72.72,0,0,1-.4-.11,6.25,6.25,0,0,0,.29-1.49.52.52,0,0,0-.56-.46,1.49,1.49,0,0,0-.64.69.63.63,0,0,0,.42.68A.94.94,0,0,1,134.76,62.27Zm.53,4.38c.26-.14.54-.19.47-.56s-.27-.43-.55-.38-.81.25-.74.62S134.91,66.63,135.29,66.65Zm.65,8.56c0-.09,0-.18-.24-.24s-.15.22-.13.31.05.28.24.24S136,75.4,135.94,75.21Zm2.76-3.09a1.11,1.11,0,0,0-.77-.52.24.24,0,0,0-.22.32c0,.1.77.53.93.4S138.73,72.3,138.7,72.12Zm1.06,2.09a.24.24,0,0,0,.22-.33c-.12-.16-.21-.15-.4-.11a.19.19,0,0,0-.13.31C139.47,74.17,139.67,74.23,139.76,74.21Zm3,1.16c0-.19-.16-.35-.33-.22s-.31.34-.28.52a.26.26,0,0,0,.33.23C142.74,75.85,142.79,75.65,142.74,75.37Zm2.65-4.69c-.18,0-.36.07-.24.23s.21.63.58.56c.19,0,.63-.21.49-.47S145.63,70.92,145.39,70.68Zm4.46,3.93c.57,0,.67-.5.78-.91s-.21-.63-.43-.78-.62-.26-.64.13-.24.23-.46.08a.38.38,0,0,0-.59-.08,1.38,1.38,0,0,0-.49,1c0,.29.16.35.36.41A7.63,7.63,0,0,0,149.85,74.61Zm-1.32-4.52c-.74.14-.18.6-.31.92-.07.1,0,.18.15.25a.24.24,0,0,0,.22-.32.53.53,0,0,1,.19-.52c0-.09.15-.21,0-.29A.34.34,0,0,0,148.53,70.09Zm4.58,3c.27,0,.55-.1.4-.36a.81.81,0,0,0-.85-.51c-.28.06-.36.17-.32.35C152.32,73,152.83,73.2,153.11,73.14Zm1.37.22c.19,0,.26-.14.21-.42,0-.09-.05-.27-.24-.24a.41.41,0,0,0-.3.44A.25.25,0,0,0,154.48,73.36Zm2-3.32a2.18,2.18,0,0,1-.23-.72c-.15-.26-.44-.3-.5-.1-.19.52-.51.86-.5,1.43-.05.2,0,.57.22.63s.46-.09.61-.31S156.6,70.39,156.44,70Zm-.79,2.44c.28,0,.44-.18.41-.37s-.44-.3-.62-.26-.26.14-.23.33A.36.36,0,0,0,155.65,72.48Zm.1,1c.28-.05.64-.12.58-.49s-.32-.13-.5-.1-.65.12-.58.49S155.64,73.43,155.75,73.51Z"/><path class="cls-1" d="M168.79,36.88c0,2.35.4,4.67.45,6.92.12,3.38.15,6.66.55,9.93.34,3.73.5,7.58.65,11.32a9.37,9.37,0,0,0,.28,1.49,11.23,11.23,0,0,1,.26,2.52,35.58,35.58,0,0,0,.2,4.5c0,.56,0,1.13,0,1.69a4.91,4.91,0,0,1-.34,2c-.56,1.64.66,3.06,2.55,3.12a15.34,15.34,0,0,0,2.24-.24,11.92,11.92,0,0,1,3.18-.2,20.29,20.29,0,0,0,2.33-.25c2.15-.23,4.31-.28,6.46-.33,3.67,0,7.33,0,10.82-1.36l.28,0c0,.19-.18.2-.17.3a17.09,17.09,0,0,1-7.44,4,9.54,9.54,0,0,1-2.32.44l-20.21,1.31-.57,0c-.37,0-.58-.24-.31-.54a6.3,6.3,0,0,0,.41-3.7L164.34,22a4,4,0,0,0-.91-2.39c-.3-.35-.14-.65.24-.67l3.46-.23c.47,0,.49.35.52.72L168,24.9c.11,1.78.23,3.65.35,5.43Zm38.93,6.29c.36,5.52.91,11,1.08,16.56a16.46,16.46,0,0,1-6.79,14,17.24,17.24,0,0,1-6.57,3,21.85,21.85,0,0,1-5.51.55c-2.34.15-6.49-.14-9.46.43-.93.15-2.06.13-3.09.2a13.69,13.69,0,0,0-2.7.36,3.35,3.35,0,0,1-1.41,0c-.29-.07-.58-.24-.32-.54.68-1.08.42-2.19.45-3.22a24.81,24.81,0,0,1-.3-4.59,20.9,20.9,0,0,0-.51-4.85,7.23,7.23,0,0,1,0-2.82,1.24,1.24,0,0,0,.06-.57,24.31,24.31,0,0,1-.44-5.23c-.07-1.13-.33-2.24-.41-3.36a2.45,2.45,0,0,1,.12-1.13,1.18,1.18,0,0,0-.08-1.13,2.36,2.36,0,0,1-.07-1.12,13.91,13.91,0,0,0-.13-3.47,9.27,9.27,0,0,1-.21-3.18,17.14,17.14,0,0,0-.33-2.23c-.26-2.52-.42-5-.49-7.49l-.43-6.64c-.06-2.35-.41-4.77-.47-7.11,0-1.32,0-2.54-.06-3.85a3.69,3.69,0,0,0-.8-2.2c-.4-.35-.23-.65.24-.68.18-.1.37,0,.56,0l19.55-1.28a16.36,16.36,0,0,1,17.1,12.89c.16,1,.32,2,.39,3.17C207,32.69,207.38,37.93,207.72,43.17ZM173.61,21.53c.1.09-.06.47.22.46s.26-.31.24-.59,0-.37-.3-.35S173.6,21.34,173.61,21.53Zm1-5.52c-.27.21-.63.33-.61.7s.31.36.5.44a1.09,1.09,0,0,1,.68.33c.1.09.1.18.19.08l.09-.1a2.35,2.35,0,0,1-.26-1.11C175.23,16.07,175,16.09,174.66,16Zm.66,10c-.11-.18-.22-.36-.5-.34-.09,0-.28,0-.17.2s.2.27.49.34C175.23,26.22,175.33,26.21,175.32,26Zm3.11,10.23c.18,0,.46,0,.45-.22s-.3-.35-.49-.34a13.33,13.33,0,0,0-1.89-.07c-.55.13-1.1.36-1.43-.37-.1-.09-.2-.18-.38-.07s-.08.19,0,.28a4.48,4.48,0,0,0,.61.71c.3.26.59.43.85,0,.08-.19.27-.21.46-.13A5.33,5.33,0,0,1,178.43,36.25Zm-3.73,2,0,.28a.5.5,0,0,0,.6.52c.47,0,.74-.14.81-.61.07-.29-.23-.65-.51-.53s-.46.12-.48-.16c-.1-.09-.11-.27-.29-.17s-.18.2-.17.29Zm.25,5.15.06.94a2.64,2.64,0,0,1,.15.83c0,.28.11.37.4.45.66,0,1.16.48,1.65.73.29.17.23.65.24.93a2,2,0,0,0,1.42,1.6.64.64,0,0,1,.59.33c0,.1,0,.28.21.27s.17-.2.16-.38c0-.85.26-1.71-.53-2.41-.21-.27-.33-.73,0-.85s.44-.5.23-.86a1,1,0,0,1-.16-1c.08-.2.06-.48-.12-.47-.67-.14-.71-.7-.93-1.16-.41-.63-.51-.72-1.16-.49-.46.13-.83.25-1.23-.2a.59.59,0,0,0-.76-.14.62.62,0,0,0-.33.68Zm.32,3.55c0,.19-.07.38,0,.47,0,.37.22.45.48.15a2.63,2.63,0,0,1,.71-.7c.18-.11.17-.29,0-.37a1.32,1.32,0,0,0-1-.22C175.14,46.42,175.26,46.79,175.27,47Zm1.09-15c.18-.11.27-.21.26-.39s0-.29-.21-.27-.37.11-.35.3S176.17,31.89,176.36,32Zm0,19.64c.18,0,.36-.12.35-.31s-.2-.27-.39-.25a.29.29,0,0,0-.26.3.25.25,0,0,0,.3.26Zm1.8-11.21a.75.75,0,0,0,.64-.23.28.28,0,0,0,0-.37.56.56,0,0,0-.66,0,.9.9,0,0,1-.86-.13c-.1-.18-.29-.17-.46,0s-.26.39-.15.57.2.27.39.26A4.2,4.2,0,0,1,178.13,40.4Zm.58,16.13c0-.28-.3-.36-.58-.25a5.44,5.44,0,0,0-1.92.79.53.53,0,0,0,.06.93l.49.25c.29.17.47.07.45-.22a.66.66,0,0,1,.52-.78l.73-.24A.42.42,0,0,0,178.71,56.53Zm-.79-25.13c0-.28-.2-.27-.39-.26s-.56.13-.54.41a.53.53,0,0,0,.51.53C177.87,32.06,177.84,31.59,177.92,31.4Zm-1,32.85c-.1-.18-.12-.36-.4-.35s-.17.3-.15.48,0,.28.3.27S177,64.44,177,64.25Zm.53-9.24c-.1,0-.38,0-.27.21a.85.85,0,0,0,.68.42.25.25,0,0,0,.27-.3C178.14,55,177.77,55,177.49,55Zm1.58-34.78c-.18.11-.47,0-.45.22s.29.17.38.16c.28-.11.66.05.93-.25C179.63,20.1,179.27,20.41,179.07,20.23Zm-.15,30.83c-.56,0-.64.23-.62.61s0,.56-.33.68c-.09,0-.27.11-.27.2s.2.18.3.17c.58.25,1.05.31,1.39-.28.17-.2.54-.31.33-.68S179.3,51,178.92,51.06Zm-.85,21.58c.19,0,.27-.21.26-.4A.25.25,0,0,0,178,72c-.28,0-.27.21-.26.4a.26.26,0,0,0,.3.26Zm1.27-9.39c-.11-.18-.12-.37-.4-.35a.2.2,0,0,0-.17.2.4.4,0,0,0,.39.35A.19.19,0,0,0,179.34,63.25Zm1.58-46.42c-.1,0-.28,0-.27.2a2.86,2.86,0,0,0,.88.6c.19,0,.18-.1.18-.2A.71.71,0,0,0,180.92,16.83Zm.2,1.67c-.09,0-.48-.15-.46.22a.57.57,0,0,0,.43.73c.38.06.57.15.69.51a.4.4,0,0,0,.66.05.79.79,0,0,0,.52-.69c0-.28-.3-.26-.58-.24s-.37,0-.39-.26C181.86,18.36,181.58,18.38,181.12,18.5Zm-.62,39.42a.45.45,0,0,0-.32-.45.56.56,0,0,0-.74,0c-.17.3-.25.49-.14.76a.71.71,0,0,1-.05.76.17.17,0,0,0,0,.28.1.1,0,0,0,.1.09C180.29,59.15,180.46,58.86,180.5,57.92Zm-.18-2.62c0-.19,0-.47-.31-.45a.94.94,0,0,0-.61.69c0,.28.31.36.49.35C180.27,55.86,180.34,55.58,180.32,55.3Zm.42,7.86a.92.92,0,0,0-.59-.43c-.19,0-.37.12-.35.3s.3.36.49.44S180.67,63.45,180.74,63.16Zm-.21,8.28c-.19,0-.56,0-.54.32s-.35.49-.05.76.37-.12.55-.23h.19c.27-.11.55-.22.44-.5S180.82,71.52,180.53,71.44Zm2.74-24.32.8,12.25c.09,1.41.18,2.81.37,4.3.21,1.77.31,1.86,2.18,1.74,2.06-.14,4-.26,6.08-.49a4,4,0,0,0,3.68-2.68,6.93,6.93,0,0,0,.51-3.61,35.51,35.51,0,0,1-.29-4.49,15.71,15.71,0,0,0,0-2.06,10.86,10.86,0,0,1-.38-3c0-.84,0-1.69-.08-2.62-.39-3.08-.4-6.18-.8-9.35-.17-1.11-.05-2.25-.12-3.37l-.29-4.31a7.11,7.11,0,0,0-.15-2.43c-.81-2.2-2.31-3.61-4.65-3.55a50.76,50.76,0,0,0-7.49.49c-.37,0-.45.22-.43.5-.06,2.07.07,4,.11,6C182.45,36,182.91,41.6,183.27,47.12Zm-.72,22.12c.37,0,.65-.13.62-.6a.45.45,0,0,0-.5-.44c-.28,0-.81.53-.71.71C182,69.28,182.36,69.16,182.55,69.24Zm0,4.61.47,0a.92.92,0,0,0,.44-.41c0-.18-.11-.27-.31-.35s-.28-.08-.46,0l-.45.31c-.18.1-.47.12-.45.31s.38.16.57.15Zm1.28-3.37c0-.19,0-.38-.3-.36s-.68-.33-.85,0l-.51.7c-.18.2-.16.57.12.46a8.7,8.7,0,0,0,1.48-.38C183.88,70.85,183.86,70.66,183.85,70.48ZM190.56,48l-.9-13.76c-.18-2.71-1.81-4.77-4.64-5a.49.49,0,0,1-.6-.52,9.64,9.64,0,0,0-.16-2.34c0-.47.16-.57.62-.6,1.59-.11,3.28-.22,5-.23a2.46,2.46,0,0,1,1.14.2c.38.07.49.25.51.63s-.06.47-.24.67c-.19,0-.37.12-.35.31s.38.06.47.06.09-.1.18-.11c1-.34,1-.34,1.18.77a2.24,2.24,0,0,1,.07,1.12c.15,3.75.3,7.41.73,11.14.29,3,.38,5.89.48,8.89a8,8,0,0,0,.26,2.52,8.59,8.59,0,0,1,.27,2.71,42.17,42.17,0,0,0,.21,4.69,5.36,5.36,0,0,1-.4,2.47,2.21,2.21,0,0,1-2.45,1.28c-.2-.08-.39-.16-.41-.44,0-.09,0-.28,0-.47Zm-4.08,23.85c-.11-.18-.22-.46-.4-.35-.38,0-.55.22-.53.5s.11.37.3.36S186.41,72.19,186.48,71.81Zm.23-.77c.18,0,.27-.11.27-.2a.32.32,0,0,0-.3-.27.25.25,0,0,0-.27.3C186.43,71.06,186.52,71.05,186.71,71Zm4.31-55c0-.28-.22-.45-.31-.35-.37.11-.83.15-1.2.26-.19,0-.37.21-.17.39a1.48,1.48,0,0,0,1.16.49C190.78,16.84,190.84,16.27,191,16.07Zm-1.83,55.65c-.18.11-.56,0-.63.33a.45.45,0,0,0,.32.54,1.8,1.8,0,0,0,1.25.48.6.6,0,0,0,.42-.78A1.42,1.42,0,0,0,189.19,71.72Zm.23-2.27a1.52,1.52,0,0,0,.22.46c.19.08.27-.11.46-.22a2.86,2.86,0,0,1,.92-.25c.19,0,.47,0,.54-.31s0-.28-.12-.37a.56.56,0,0,0-.66-.05c-.17.2-.36.21-.65.13S189.39,69,189.42,69.45Zm4.47-53.94c-.27.11-.65,0-.63.41s.4.35.68.34a1.86,1.86,0,0,1,.76,0,.27.27,0,0,0,.36-.12c.09-.19,0-.28-.11-.36A4.38,4.38,0,0,0,193.89,15.51Zm-.6,57,0-.19c0-.09.17-.29-.12-.36-.09,0-.18.1-.26.2,0,.28-.25.58,0,.94.1.09.2.08.38,0s.09-.1.08-.19Zm4.05-2.61c-.75.05-.92.25-.88.9,0,.37.33.64.16,1a.45.45,0,0,0,.13.56c.2.08.38,0,.55-.22l1.22-1.49c.17-.3.16-.48-.22-.55A1.82,1.82,0,0,0,197.34,69.88Zm2-46.17a.58.58,0,0,0-.41-.54c-.28,0-.35.3-.34.49a.52.52,0,0,0,.41.54C199.25,24.18,199.33,24,199.31,23.71Zm-1.68,44.74c0-.19,0-.28-.21-.27s-.36.21-.35.4.11.27.3.26S197.64,68.64,197.63,68.45Zm3.15-45.31a1.79,1.79,0,0,0,1-.91.45.45,0,0,0-.22-.55c-.21-.27-.38-.07-.56,0a.57.57,0,0,1-.66,0c-.39-.25-.46,0-.53.41A.9.9,0,0,0,200.78,23.14Zm-.56,4.45a.31.31,0,0,0-.26.3.76.76,0,0,0,.4.35c.19,0,.18-.2.16-.39S200.5,27.58,200.22,27.59Zm-.66,15.83c.1.09-.06.38.22.46l.09-.1c.06-.57.35-.4.65-.14a.85.85,0,0,0,.65-.13.28.28,0,0,0,.17-.3.58.58,0,0,0-.58-.24l-.48-.16C199.7,42.66,199.53,42.86,199.56,43.42Zm2.08-4.17a2.74,2.74,0,0,0-.42-.73c-.21-.27-.47,0-.65.14h-.19c-.37,0-.46.13-.34.49s.32.55.69.52c.19,0,.37-.12.39.16s-.08.2-.27.3c-.46.13-.26.21,0,.38,0,.09.1.09.1.18.2.17.31.36.48.16s.27-.3.15-.58-.11-.37,0-.56S201.75,39.52,201.64,39.25Zm-1.06,5.33c-.19,0-.47-.06-.56.13s-.08.19,0,.19a.59.59,0,0,0,.66.05c.09,0,.09,0,.18-.11s.37-.12.35-.3-.28,0-.46,0Zm-.41,3.78c-.19,0-.18.11-.17.3s.3.35.59.33c.1.09.28.08.27-.11S200.37,48.54,200.17,48.36Zm2.6-23.47c0-.37-.23-.74-.51-.72s-.45.41-.43.69.13.55.51.53A.44.44,0,0,0,202.77,24.89Zm.75,7.19a1.12,1.12,0,0,0-.13-.56c0-.37-.31-.45-.69-.52a.45.45,0,0,0-.55.23,1.32,1.32,0,0,0,.09,1.31c.3.35.6.62,1,.5S203.45,32.46,203.52,32.08Zm-.43-5.24a1,1,0,0,0-.13-.46.19.19,0,0,0-.2-.17.19.19,0,0,0-.17.19,2.73,2.73,0,0,1-.3,1.15c-.09.1,0,.28.12.37s.28.08.28,0C202.76,27.52,203.12,27.31,203.09,26.84Zm-.57,21.56c-.19,0-.27.11-.27.2s.22.46.51.53a.19.19,0,0,0,.17-.19A.85.85,0,0,0,202.52,48.4Zm.8-6.44a.63.63,0,0,0-.34.49.9.9,0,0,0,.8.7c.28,0,.36-.12.44-.41S203.7,42,203.32,42ZM203,66.31c0-.18-.2-.17-.29-.17-.28.12-.65.23-.71.61,0,.1.19.18.38.17S202.86,66.6,203,66.31Zm1.72-15.43,0-.56c-.1-.18-.22-.45-.5-.44a.44.44,0,0,0-.43.5,3.14,3.14,0,0,0,.06.94c0,.37.31.45.68.42s.17-.29.25-.48Zm.45,9.84c0-.19,0-.37-.2-.27-.37.12-.07.48-.23.77-.09.1,0,.28.1.18C205.24,61.28,205.22,61,205.2,60.72Z"/><path class="cls-1" d="M258.46,78.85l-6.91.61a2.43,2.43,0,0,1-.85,0c-.47,0-.59-.23-.43-.62h.09c1-.94.68-1.95.38-3.14-2-6.13-3.9-12.27-5.85-18.41-3.49-10.7-6.89-21.51-10.37-32.22-.63-1.73-1.17-3.57-1.79-5.3a5.41,5.41,0,0,0-2.06-3.11l-.31-.26c-.31-.35-.24-.63.23-.68l5.13-.45c.28,0,.39.16.5.33.37.91.63,1.83,1,2.65.63,1.82,1.17,3.66,1.8,5.49.13.36.34.62-.1,1a.36.36,0,0,0,0,.57c.21.17.39.15.46-.14.09-.1.18-.11.2.17.68,2.39,1.64,4.66,2.14,7.15a3.61,3.61,0,0,1,.28,1c.1.08.12.27-.07.28s-.28,0-.39-.15-.14-.55-.32-.44c-.37.12-.15.48,0,.75l.39,1.19a.49.49,0,0,0,.61.51.92.92,0,0,1,.72.69c.24.64.58,1.27.83,2a1.84,1.84,0,0,1,.28,1c-.07.29.31.35.34.63l.79,2.57c0,.09.12.27-.07.28-.54.24-.14.58.07.75a1.75,1.75,0,0,1,.45.9,39.61,39.61,0,0,1,2.07,6.41c.14.55.47,1.09.24,1.67-.07.2.22.36.34.63.36.82.62,1.64,1,2.55a.9.9,0,0,1,.07.84.14.14,0,0,0,0,.19c.74.87.66,2.11,1.12,3.1a1.56,1.56,0,0,1-.06,1.42c-.17.2.05.56.34.72.69.32.57,1.08.8,1.62.12.18-.17.11-.28,0s-.28-.07-.45.13a.42.42,0,0,0,0,.47c.21.26.4.25.57.14s.37-.13.39.15.44.62,0,.76-.34.4-.23.67.22.27.23.46c.22.35.42.43.57,0s.17-.2.28,0a11,11,0,0,1,.86,2.28c.13.37-.15.49-.41.7a.52.52,0,0,0-.24.49c.12.27.3.16.49.14a.73.73,0,0,1,.74,1c-.08.2-.25.4-.41.7a2.4,2.4,0,0,0,.27,3.08,2.35,2.35,0,0,0,2.79.7,6.15,6.15,0,0,1,1.86-.26A36.77,36.77,0,0,0,265,74.7c.46,0,.67.13.52.62a1.8,1.8,0,0,0,.62,1.73c.31.26.7.41.54.8s-.54.24-.82.26c-2.51.32-4.95.44-7.38.65ZM242.87,8.79,249,8.24l.93-.08c.38.06.49.24.34.63a2.17,2.17,0,0,1-.6.71,1.51,1.51,0,0,0-.24,1.53c.65,2,1.39,4,2.05,6.12l6.61,20.6c1.1,1.79,1.48,3.92,2.21,5.83.38,1.1.67,2.29,1.05,3.39,0,.09,0,.37.22.36s.16-.3.16-.39c.53-3.53,1-7.06,1.42-10.58a13.12,13.12,0,0,1,.46-3.24,1.1,1.1,0,0,0,.06-.47,2.76,2.76,0,0,1,0-1.51,71.87,71.87,0,0,0,1.18-9,.09.09,0,0,0,.08-.1,6.25,6.25,0,0,0-.69-4.65,27.77,27.77,0,0,1-1.47-3.92c-.11-.18-.23-.45-.06-.65a.58.58,0,0,0,.06-.38c-.52-1.56-1-3.11-2.44-4.12-.2-.17-.5-.42-.43-.71s.44-.32.72-.35L274.07,6a.69.69,0,0,1,.68.22c.11.27-.06.47-.23.68-.86.83-.7,1.66-.33,2.66,2.84,8.69,5.49,17.4,8.41,26,.9,2.65,1.88,5.3,3,7.93.13.37.07.84.47,1.09a2.25,2.25,0,0,0,.28-1.15l.87-6.11c.36-2.38.62-4.76.78-7.22.1-2,.68-4,1-6s.69-4,.79-6a58.46,58.46,0,0,1,1.27-8,13.13,13.13,0,0,0,.45-3.43A.86.86,0,0,0,291,6l-.31-.34c-.3-.17-.59-.33-.44-.72s.44-.32.72-.34l10.74-.95,2.62-.23c.29.07.56-.05.68.22s-.05.48-.22.68a7,7,0,0,0-1.71,4.1c-2.82,19.27-5.25,38.68-7.89,57.93a2.46,2.46,0,0,0,.89,2.56c.2.17.31.34.23.54s-.35.22-.53.33h-.1c-2.9.16-5.67.78-8.56,1.13a4.94,4.94,0,0,1-2.36-.08.64.64,0,0,0-.38-.06,12.68,12.68,0,0,1-3.72.43c-.09.1-.29,0-.38,0-.28,0-.64.15-.77-.21s.24-.5.42-.61a2.19,2.19,0,0,0,.62-2.59,55.34,55.34,0,0,1-2.47-6.66A18.48,18.48,0,0,1,277.7,59c0-.37-.34-.63-.36-.91-.38-1.09-.76-2.19-1-3.2-.49-1.28-.88-2.56-1.38-3.93-.36-.91-.64-1.92-.91-2.83-.11-.18-.13-.46-.23-.45s-.16.29-.14.48c-.63,4.57-1.26,9.24-2,13.92-.27,2.28-.53,4.56-.89,6.95a1.75,1.75,0,0,0,.63,1.82c.21.17.7.41.54.8s-.63.25-.91.27h-.1c-2.81.15-5.49.67-8.29.92a37.51,37.51,0,0,1-4.5.3,5.62,5.62,0,0,0-2.14.28.78.78,0,0,1-.67-.13.42.42,0,0,1,.14-.57.31.31,0,0,1,.08-.2,2.49,2.49,0,0,0,.41-2.76,22.94,22.94,0,0,0-1.85-5,1.89,1.89,0,0,1-.09-1,1.79,1.79,0,0,0-.61-1.54A1.41,1.41,0,0,1,253,61a1.34,1.34,0,0,0-.08-.84,12.57,12.57,0,0,1-1.36-3.65,22.43,22.43,0,0,0-.7-2.66c-.15-.65-.67-1.17-.82-1.82a46.22,46.22,0,0,0-1.27-4.78l0-.37c-1.18-2.72-1.81-5.58-2.72-8.42l-.84-2a52.69,52.69,0,0,1-2-6.51c-.29-1.1-.76-2.19-1-3.39-.52-1.65-1.14-3.29-1.66-4.93-.66-2.11-1.5-4.2-2.06-6.32-.25-.63-.31-1.38-.56-2a5.19,5.19,0,0,0-2-2.83c0-.09-.1-.09-.11-.18-.2-.17-.4-.34-.33-.54s.35-.31.54-.33Zm-2.56,20.08c0-.18-.12-.27-.29-.16s-.37.13-.35.41.13.36.31.25S240.33,29.06,240.31,28.87Zm2.57-13.59c-.09,0-.4-.25-.47,0a.41.41,0,0,0,.24.54c.1.09.11.18.2.18a4.66,4.66,0,0,1,1.15.18.38.38,0,0,0,.54-.24q.12-.29-.33-.54A2,2,0,0,0,242.88,15.28Zm3.65,6.17a1.18,1.18,0,0,0-1.59-.89c-.17.11-.06.29,0,.37a2.37,2.37,0,0,1,.83.87c.19.08.31.35.57.14S246.55,21.64,246.53,21.45Zm.35,4c0-.19.06-.38-.22-.45a.41.41,0,0,0-.47,0c-.18.11-.16.39-.05.57s.11.18,0,.28-.34.41,0,.57.35-.22.54-.24A.77.77,0,0,0,246.88,25.47Zm-.14-1.59a.34.34,0,0,0-.4-.34c-.19,0-.37.13-.35.31a.44.44,0,0,0,.41.44A.34.34,0,0,0,246.74,23.88Zm.89,4.72c0-.18,0-.46-.32-.44a.77.77,0,0,0-.49.89c0,.19.06.66.43.53S247.57,29,247.63,28.6Zm.19,2.15c0-.18-.13-.36-.31-.35s-.17.21-.17.3,0,.37.22.36A.25.25,0,0,0,247.82,30.75Zm-1.53-12c.12.28.15.65.62.61s.54-.24.59-.71a.48.48,0,0,0-.6-.51C246.52,18.16,246.35,18.36,246.29,18.74Zm6.31,49.15c-.19,0-.27.12-.16.29s0,.28.21.27a.4.4,0,0,0,.25-.4C252.79,67.87,252.69,67.88,252.6,67.89Zm-3.78-36.47c-.1-.09-.11-.18-.2-.17-.36.22-.23.58-.31.78s0,.18.11.18C248.68,32,248.65,31.62,248.82,31.42Zm-.64-4.09a.2.2,0,0,0,.17-.2c0-.28-.21-.27-.4-.25s-.19,0-.17.2S248,27.35,248.18,27.33Zm.12-2.93c-.19,0-.28.12-.27.21a.69.69,0,0,0,.7.51c.29,0,.37-.13.26-.31C249,24.35,248.5,24.57,248.3,24.4Zm2.36,15.14c.39.06.63-.34,1-.37.19.07.28,0,.26-.22s-.11-.17-.3-.16a4,4,0,0,1-1.34-.26c-.1-.08-.28,0-.35.22C249.78,39.14,250.2,39.58,250.66,39.54Zm2.6,8.05c0-.28,0-.56-.33-.53s-.37.12-.34.4.16.74.54.8C253.23,48.35,253.18,47.79,253.26,47.59Zm-.46-5.23a.34.34,0,0,0,.34-.4.44.44,0,0,0-.5-.34.34.34,0,0,0-.34.41C252.32,42.31,252.52,42.39,252.8,42.36Zm-1.28-13.44c0-.09,0-.47-.23-.45s-.26.21-.26.3c0,.28.14.46.42.44C251.54,29.2,251.63,29.1,251.52,28.92Zm2,16.86c.28,0,.55-.15.44-.32s-.25-.74-.63-.8a.45.45,0,0,0-.43.51C253,45.64,253.29,45.8,253.57,45.78Zm.53,3.9c-.08.2,0,.38.31.35s.45-.32.42-.6-.13-.46-.41-.34S254.07,49.31,254.1,49.68Zm.94-2.15a1.67,1.67,0,0,0,.65-.15c.17-.21.44-.32.32-.6s-1.2-.83-1.47-.62-.8.45-.66,1,.59.33,1,.39ZM253.63,39a1.85,1.85,0,0,1,.73-.25c.09,0,.19,0,.18-.11s-.11-.18-.2-.17c-.29,0-.46.14-.76,0-.1-.08-.2-.07-.37,0s-.08.19,0,.37S253.44,39,253.63,39Zm1.69,17.08a7.3,7.3,0,0,1,.5,1.37.2.2,0,0,0,.2.17.26.26,0,0,0,.26-.31.51.51,0,0,1,.24-.49c.43-.41.31-.78,0-1.22-.2-.17-.23-.54-.59-.33S255.48,55.68,255.32,56.07ZM255,44.24a.37.37,0,0,0-.39-.16.25.25,0,0,0-.25.31c0,.18.11.17.29.16A.39.39,0,0,0,255,44.24Zm1.29,14.57V59a2.22,2.22,0,0,0,1.56.52.71.71,0,0,0,.15-.39c-.14-.45-.07-.74.49-.79a.39.39,0,0,0,.34-.5c-.12-.27-.39-.16-.57,0a1,1,0,0,1-1,.09C257,57.71,256.28,58.34,256.32,58.81Zm.12-6.13c.26-.21.23-.49.3-.78s-.11-.27-.3-.26a.69.69,0,0,0-.5.7C256,52.53,256.15,52.61,256.44,52.68Zm1.78,9.54a.29.29,0,0,0-.05-.57.29.29,0,1,0,.05.57Zm-.81-10.29c-.18.11-.46.23-.34.5a.47.47,0,1,0,.94-.08C258,52.07,257.69,52,257.41,51.93Zm-.08-4c0-.18-.11-.18-.2-.17-.27.12-.45.23-.43.51s.12.27.21.26C257.29,48.46,257.16,48.1,257.33,47.89Zm1.13,6.4c0-.28,0-.56-.42-.53s-.64.24-.62.52a.51.51,0,0,0,.61.52C258.41,54.76,258.48,54.57,258.46,54.29Zm2.05,1.89c.19.07.19,0,.27-.12s-.11-.18-.21-.26c-.31-.35-.87-.3-1.27-.55a.42.42,0,0,0-.47,0c-.18.11-.16.3-.05.48s.2.17.39.15a1.4,1.4,0,0,1,1.25.27Zm0,10.91a2.35,2.35,0,0,0,1.15-.85c.08-.19.07-.29,0-.37a.38.38,0,0,0-.39-.16,4.21,4.21,0,0,0-1.15.86c0,.09-.07.29,0,.37S260.33,67,260.53,67.09Zm.13-4.9c-.12-.27,0-.57-.32-.44s-.65,0-.62.43.23.45.51.42S260.69,62.47,260.66,62.19ZM260.18,60c.28-.12.64-.24.52-.52s-.41-.43-.62-.69c-.26.3-.73.34-.7.62C259.42,59.85,259.89,59.81,260.18,60Zm.82,9.25c.38.06.47,0,.43-.42a.34.34,0,0,0-.4-.34c-.27.12-.55.24-.52.52S260.81,69.23,261,69.22Zm-3.33-55.9a17.19,17.19,0,0,0,2.14-.29c.38,0,.57.05.71.51a61.2,61.2,0,0,0,2.3,5.82c.12.27.23.54-.13.67s-.42.6,0,.85c.29.07.21.26.23.45-.39,3-.68,6.18-1.17,9.23a58.53,58.53,0,0,0-.79,7c-.07.19,0,.37-.15.39s-.11-.18-.22-.36a26.51,26.51,0,0,0-1.16-3.57,1.91,1.91,0,0,1-.09-1l.69-5a6.58,6.58,0,0,0-.36-3c-.78-2.48-1.66-4.94-2.44-7.41a5.57,5.57,0,0,0-2.16-3.2c-.21-.17-.41-.34-.34-.63s.44-.32.72-.35Zm2.95,44.16c0-.18-.11-.17-.29-.16a.34.34,0,0,0-.34.41c0,.09.11.27.29.16S260.65,57.77,260.62,57.48Zm.55-2.4c.27-.11.56,0,.81-.35s.25-.4.14-.58a.39.39,0,0,0-.58-.13,1.51,1.51,0,0,1-.92.26c-.18,0-.37,0-.44.33a.44.44,0,0,0,.51.42C260.79,55.12,261,55.1,261.17,55.08ZM266,65.48l0-.28c0-.19.05-.48-.24-.54s-.35.22-.43.41a.59.59,0,0,1-.82.26.57.57,0,0,0-.66.06.43.43,0,0,1-.57,0c-.11-.17-.28-.06-.37,0s-.35.31-.25.4c.32.35.36.81.58,1.17.11.18.29.07.39.15a.77.77,0,0,1,.47.05A1.61,1.61,0,0,0,266,65.48Zm-3-4.54a.69.69,0,0,0,.15-.49.25.25,0,0,0-.31-.25c-.18,0-.26.21-.24.4S262.81,60.87,263.09,60.94ZM265,64.53c0-.09,0-.18-.11-.17-.3-.17-.46.13-.74.16a.28.28,0,0,0-.25.3v.09c.21.17.3.17.48.06S264.94,64.82,265,64.53ZM263.89,54c0-.1-.11-.18-.29-.17s-.28,0-.27.22a.3.3,0,0,0,.31.25A.24.24,0,0,0,263.89,54Zm1.23-3.22.17.93c.22.36.36.81.81.59s.23-.59.11-.86-.25-.73.21-.87c.09,0,.26-.21.16-.29-.4-.25-.27-.92-.86-1.15-1-.29-1.42-.16-2.27.86-.18.11-.45.23-.24.49s.39.15.57.14.36-.22.43-.51.44-.32.73-.25.31.25.23.45A.77.77,0,0,0,265.12,50.78Zm.25,12.5a.28.28,0,1,0-.56,0c-.08.19.11.18.31.25A.28.28,0,0,0,265.37,63.28Zm.15-9c-.15.39.15.56.44.72.1.08.14.46.4.25.09-.11-.12-.28-.13-.46-.23-.45-.16-.65.41-.7a.84.84,0,0,0,.45-.13.25.25,0,0,0,.26-.31c0-.19-.21-.26-.39-.15a2.38,2.38,0,0,1-.84.07C265.55,53.57,265.46,53.67,265.52,54.32Zm.75,3.14a.45.45,0,0,0,.43-.51c0-.19,0-.37-.22-.26s-.44.32-.51.61S266.08,57.47,266.27,57.46Zm-.78-11c0,.38.36.82.73.79s.37-.13.26-.31,0-.37.13-.58.05-.56-.24-.63C265.78,45.55,265.44,45.86,265.49,46.51Zm2.43,11.56c.57,0,.74-.16.71-.54s-.23-.45-.41-.34c-.37,0-.84.08-.8.54S267.83,58.07,267.92,58.07Zm1.25-4a.33.33,0,0,0-.4-.34c-.56,0-.5-.34-.44-.72,0-.19.15-.39.22-.68s-.25-.73-.52-.61a1,1,0,0,0-.7.63.78.78,0,0,0,.34.72c.3.16.4.25.25.64s.07.84-.07,1.32c-.1,0,0,.09.11.18s.49.24.61.51.28.07.28,0Zm-2.83-12.93c-.19,0-.17.2-.16.29-.07.29.12.37.4.35.1,0,.28,0,.27-.22A.6.6,0,0,0,266.34,41.17Zm.84,3.12c.56,0,1.27-.48,1.34-.77s-.52-.62-1-.57-.9.45-.87.82S266.81,44.33,267.18,44.29ZM269.37,51c0-.18-.22-.35-.4-.24a1.4,1.4,0,0,1-.54.23s-.19,0-.18.11.19.08.29.07a.45.45,0,0,0,.39.15C269.21,51.36,269.39,51.25,269.37,51Zm-2-14.41a.25.25,0,0,0-.31-.25c-.28,0-.15.39-.23.58s0,.28.21.26A.85.85,0,0,0,267.35,36.56Zm1.28,8.17c0-.09-.11-.18-.19-.08s-.46.14-.44.42c0,.09.12.27.2.17C268.48,45.21,268.55,44.93,268.63,44.73Zm.31-4a.23.23,0,0,0-.38-.06l-.73.35c-.17.11-.26.21-.15.39a.3.3,0,0,0,.31.25C268.18,41.76,269,40.94,268.94,40.75Zm.55,7.29c-.27.12-.36.22-.34.5s.13.37.32.35.25-.3.33-.5S269.68,48.12,269.49,48Zm.74-3.26c-.11-.18-.21-.27-.39-.25a1.13,1.13,0,0,0-.43.51c0,.19.13.36.31.25A.56.56,0,0,0,270.23,44.78Zm-2.29-16.46c-.07.29,0,.47.32.44a.82.82,0,0,0,.6-.62.61.61,0,0,0-.61-.51C267.79,27.67,268,28.12,267.94,28.32Zm1.83,14.43c.18-.11.27-.21.25-.4s-.12-.27-.3-.26-.17.21-.17.3S269.58,42.67,269.77,42.75Zm0-7c.18-.11.47,0,.44-.42s-.31-.25-.49-.14-.76-.12-.72.34C269.07,35.84,269.44,35.72,269.72,35.79ZM268.81,34c0,.1,0,.28.31.26a.25.25,0,0,0,.25-.31c0-.18-.12-.36-.31-.34S268.79,33.7,268.81,34Zm-2-21.66c.12.28.05.56.42.53s.45-.23.42-.6-.32-.44-.51-.43C266.76,11.76,266.79,12.14,266.81,12.32Zm16,64.39-7.19.63c-.38,0-.84.17-1-.2s.13-.67.39-.88a1.89,1.89,0,0,0,.29-2c-.64-1.92-1.18-3.85-1.82-5.77a4.61,4.61,0,0,1-.2-2.24c.25-2.47.6-5,.95-7.43l0-.28a.47.47,0,0,1,.44-.41c.28,0,.38.06.5.33a10.67,10.67,0,0,1,.67,2.29A24.82,24.82,0,0,0,277,64.33c.12.27.14.55-.23.68a.34.34,0,0,0-.14.48c.11.18.24.55.6.42s.38.06.5.33a3.73,3.73,0,0,1,.53,1.74s-.09,0,0,.1c.61.51.07.84-.27,1.24a2.36,2.36,0,0,0-.34,2.58,2.2,2.2,0,0,0,2.2,1.4l5.16-.17c1.49-.13,3-.26,4.48-.49.37,0,.57.14.51.52a1.76,1.76,0,0,0,.73,1.82c.2.17.5.33.34.72s-.45.23-.73.25c-2.51.32-4.95.44-7.47.66Zm-13-47a.25.25,0,0,0-.25.31.58.58,0,0,0,.51.52c.19,0,.27-.22.16-.3C270.25,30,270.23,29.72,269.85,29.75ZM269.24,26a.72.72,0,0,0,.43.62.17.17,0,0,0,.28,0c.17-.21.06-.39.05-.57a.88.88,0,0,0-.14-.46c0-.09,0-.28-.12-.27s-.28,0-.35.22A.71.71,0,0,0,269.24,26Zm0-4.14c0-.1-.11-.18-.21-.27s-.26.21-.25.4a.2.2,0,0,0,.21.17A.24.24,0,0,0,269.25,21.9Zm3,12.06c0-.09,0-.37-.3-.26a5.09,5.09,0,0,1-1.23-.08c-.19,0-.46.14-.44.42s.14.46.42.43.47,0,.58.14a.5.5,0,0,0,.67.13C272.26,34.62,272.33,34.33,272.29,34Zm.95-4.23c0-.18-.12-.27-.21-.26a.59.59,0,0,0-.73.25,2.06,2.06,0,0,1-1.17.67c-.37,0-.35.31-.14.48l.61.52c.19.07.2.17.12.36s-.26.21-.36.13c-.5-.24-.68-.23-.53.42,0,0-.18.11-.17.2s-.36.22-.25.4.31.26.49.24.27-.21.25-.4a.78.78,0,0,1,.43-.51c.55-.14.7-.53.65-1.09a1,1,0,0,1,.66-1.09C273.07,29.94,273.26,29.92,273.24,29.73Zm-4-11.59c.19,0,.28-.12.25-.4a.25.25,0,0,0-.3-.26c-.28,0-.37.13-.34.41S269,18.15,269.2,18.14Zm1.34,6.66c.48.05.55-.24.63-.44s.05-.47.23-.58.26-.21.16-.3-.3-.16-.48-.05a1.73,1.73,0,0,1-.89.55c-.27.12-.55.14-.52.52s.4.24.59.32Zm.59,2.39a.34.34,0,0,0-.34.41.74.74,0,0,0,.34.63c.19.07.16-.3.15-.39a.69.69,0,0,0,.06-.39C271.33,27.27,271.23,27.18,271.13,27.19Zm-.65-13.78c.18-.11.46-.13.34-.41s-.3-.25-.48-.14-.65.06-.64.24S270.1,13.35,270.48,13.41Zm3.26,27.39a.34.34,0,0,0-.4-.34.44.44,0,0,0-.43.5c0,.29.21.27.49.24A.34.34,0,0,0,273.74,40.8Zm2.93,25.72a4.5,4.5,0,0,0,.39,1.19c0,.19,0,.47.22.45s.07-.29.16-.39.08-.2.25-.31.16-.39,0-.46-.41-.44-.62-.61-.2-.17-.28-.07S276.67,66.52,276.67,66.52Zm-2.56-33.29a.34.34,0,0,0-.4-.34c-.38,0-.35.32-.33.6s0,.37.22.35C274.07,33.8,274,33.43,274.11,33.23Zm-.8-9.06c.28,0,.46-.13.34-.4a.55.55,0,0,1,.4-.79l.27-.21c.18-.11.26-.21.16-.3s-.19-.08-.28,0a7,7,0,0,1-1.17.57c-.37.13-.35.31-.33.59S272.94,24.21,273.31,24.17ZM276.38,28c-.08-.84-.37-1-1.23-1.11a2.44,2.44,0,0,1-1.16-.37c-.3-.16-.5-.33-.76,0s.14.55.43.62a.82.82,0,0,1,.53.71c-.05.47.23.45.51.42s.37-.12.45-.22c.37-.13.65-.16.78.21.1.09.2.17.29.16S276.39,28.14,276.38,28Zm-2.37,1c-.28,0-.46.14-.34.41s.22.36.51.43.36-.22.25-.4S274.29,28.89,274,28.91Zm2.13,15.63c-.17.11-.56,0-.54.24s.4.24.58.13a1.32,1.32,0,0,1,.86.21c.2.08.31.25.48.05s.17-.2.07-.29a.42.42,0,0,0-.41-.34A3.61,3.61,0,0,1,276.14,44.54Zm-.65-14.91-.28,0c-.18.11-.45.22-.52.51,0,.1.11.18.21.27a.45.45,0,0,0,.65-.06c.1,0,.19,0,.18-.11.18-.11.45-.23.43-.51S275.77,29.61,275.49,29.63Zm.45,1.94a.39.39,0,0,0-.39-.16c-.19,0-.36.13-.25.31s.11.18.29.16S275.86,31.76,275.94,31.57Zm3.86,19.24c.19,0,.27-.12.27-.22s-.13-.36-.32-.34-.28,0-.18.11S279.62,50.82,279.8,50.81Zm1.19,5c0-.18-.12-.36-.31-.35s-.27.12-.25.31,0,.47.32.44S281,56,281,55.78Zm0-6.68a2.48,2.48,0,0,0-.49-.24c-.21-.17-.4-.24-.58-.13a.36.36,0,0,0-.15.39.61.61,0,0,0,.42.52c.48.06.76,0,.8-.54.4.25.47,0,.63-.34,0-.09.08-.19-.12-.27s-.35.32-.42.51A.1.1,0,0,1,281,49.1ZM280,40c-.66.05-1.09.47-1.06.84s.64.89,1,.76a.65.65,0,0,0,.6-.71C280.49,40.49,280.36,40,280,40Zm-.68-2.3c0-.19,0-.37-.31-.35s-.26.21-.25.4a.26.26,0,0,0,.31.26A.3.3,0,0,0,279.3,37.67Zm1.9,9.81c-.11-.18-.14-.55-.25-.73-.13-.36-.41-.34-.68-.22s-.42.51-.12.76a5.58,5.58,0,0,0,.8.5C281.14,47.86,281.22,47.67,281.2,47.48Zm.3,6.56c-.18.11-.47.05-.53.43-.07.19.12.27.31.25a.62.62,0,0,0,.62-.43C281.88,54.11,281.78,54,281.5,54Zm1.91,1.34-.73.35a.39.39,0,0,0-.13.58c.21.26.39.24.57.13a1.23,1.23,0,0,0,.51-.7c.08-.1.17-.11.07-.2S283.5,55.37,283.41,55.38Zm-1.54-7.86c-.18.11-.27.21-.25.4a.34.34,0,0,0,.4.34c.19,0,.27-.21.25-.4A.33.33,0,0,0,281.87,47.52ZM284.09,61a.36.36,0,0,1-.07.29c-.15.48.15.64.44.71.47.06,1.07-.66,1-1.31a.45.45,0,0,0-.51-.43c-.46.05-.84.08-1-.47-.11-.18-.3-.17-.48-.06s-.06.29.13.37S284,60.61,284.09,61Zm1.65-6.83c-.11-.27-.3-.25-.5-.33-.58-.23-1.43-.25-1.69-1.08a.48.48,0,0,0-.39-.15c-.18.11-.17.2-.15.39a.55.55,0,0,0,.12.37c.22.35.8.49.67,1.16a.85.85,0,0,0,.29.07c.36-.13.47,0,.51.43s.7.5.77.21C285.62,54.91,285.3,54.46,285.74,54.14Zm-.33,12.17c.18,0,.38.06.45-.22a.92.92,0,0,0-.91-.68c-.2-.07-.37,0-.35.32S285,66.35,285.41,66.31Zm.87-3.93c.28,0,.45-.23.42-.6s-.21-.27-.4-.25a.5.5,0,0,0-.51.61C285.81,62.42,286,62.4,286.28,62.38Zm.47,4.29c.19,0,.17-.21.16-.39s0-.38-.21-.27-.27.21-.34.5C286.37,66.6,286.57,66.68,286.75,66.67Zm-2.47-18.52.1.09a2.59,2.59,0,0,0,1.45.43c.09,0,.18,0,.26-.21s-.11-.18-.3-.16a6.6,6.6,0,0,1-1.34-.26C284.35,48,284.26,48,284.28,48.15Zm3.63,18.79c.28,0,.65-.06.71-.44s-.3-.25-.49-.24-.65.15-.71.44S287.71,66.86,287.91,66.94Zm-.06-1.69c-.18,0-.36.13-.25.31s.22.35.5.33a.25.25,0,0,0,.25-.31A.47.47,0,0,0,287.85,65.25Zm-.94-54.51a5.54,5.54,0,0,1,1.21-.11c.65-.05.65-.05.53.62a50.12,50.12,0,0,0-1,5.54,77,77,0,0,1-1,8.09c-.22,1.81-.73,3.55-.84,5.44a45.32,45.32,0,0,1-.5,5c-.08.2,0,.47-.14.49s-.22-.27-.33-.45a23.64,23.64,0,0,1-1.07-3.67,10.91,10.91,0,0,1,.13-1.7l2.26-16a2.22,2.22,0,0,0-.86-2.28c-.2-.17-.41-.34-.33-.54s.35-.31.63-.33Zm.67,53.5c.11.18,0,.37.22.45a.62.62,0,0,0,.56-.14l.86-.93a.56.56,0,0,0,0-.75c-.21-.26-.7-.5-.86-.21A2.75,2.75,0,0,0,287.58,64.24Zm.28-13.86c-.65.06-1,.56-.66,1.09.11.18.23.45.51.43s.27-.21.33-.5a.52.52,0,0,1,.17-.3c.17-.2.25-.3.14-.48S288.05,50.45,287.86,50.38Zm.6-1.75c-.19,0-.17.2-.16.3s0,.28.21.26.17-.2.16-.3S288.65,48.61,288.46,48.63Zm4.43-4.16c-.12-.27-.16-.83-.65-1a.84.84,0,0,1-.91-.77c0-.09,0-.28-.21-.26s-.18.11-.26.3-.07.29-.35.31-.54.24-.51.61a5.41,5.41,0,0,1-1.48,3.52c-.08.11-.17.21-.07.29a3.29,3.29,0,0,1,.37,1c.11.18.22.27.4.25s.27-.21.25-.4c0-.37.23-.58.6-.61s.66-.06.64-.25a2.76,2.76,0,0,1,.72-1.47,1,1,0,0,0,0-1c-.12-.27.05-.47.32-.59s.48.05.5.33.13.37.4.25A.56.56,0,0,0,292.89,44.47Zm-2.5,6.81a.25.25,0,0,0-.31-.25.92.92,0,0,0-.33.5.24.24,0,0,0,.3.25C290.33,51.76,290.4,51.47,290.39,51.28Zm1.21,8.46c-.18,0-.18.11-.16.3s0,.28.21.26.27-.11.26-.3A.26.26,0,0,0,291.6,59.74Zm0-19.2c.07-.29.14-.58-.24-.64s-.67-.13-.82.26a5.06,5.06,0,0,0-.26,1.34.35.35,0,0,0,.23.46c.18,0,.37,0,.45-.23a1.24,1.24,0,0,0,0-.57c0-.37.23-.59.6-.62a3.43,3.43,0,0,0,.25,1.67c0,.19.11.28.31.35s.37,0,.44-.32.25-.4.42-.6.2-1-.18-.93S292,40.51,291.6,40.54Zm1.61,7.58a.49.49,0,0,0,.35-.32c0-.18,0-.37-.22-.45s-.4-.15-.57,0c-.15.39-.44.32-.73.26-.09,0-.39-.16-.36.12s.12.27.4.34A6,6,0,0,1,293.21,48.12Zm-1-12.25c-.11-.17-.23-.45-.51-.42s-.35.31-.42.6.22.36.5.33A.45.45,0,0,0,292.23,35.87Zm.27,2.05c0-.19,0-.37-.22-.36a2.24,2.24,0,0,0-.54,1.27.09.09,0,0,0,.1.09c.29.07.4.25.61.51a.27.27,0,0,0,.47,0,.19.19,0,0,0,0-.37A.81.81,0,0,1,292.5,37.92ZM292.36,33c.38.06.56,0,.62-.43,0-.19.16-.3.35-.32a.17.17,0,0,0,.28,0,.51.51,0,0,0-.22-.36,4.58,4.58,0,0,1-.5-.33c-.2-.08-.39-.06-.27.21a.6.6,0,0,1-.59.81c-.65,0-.62.43-.68.81,0,.19-.06.38.14.46s.26-.21.25-.31C291.9,33.27,292.08,33.06,292.36,33Zm1.74,13.4c0-.19-.12-.27-.31-.35s-.18.11-.27.21.21.17.31.26S294,46.63,294.1,46.44Zm.42-1.64a.24.24,0,0,0-.3-.25c-.37.12-.63.33-.6.71a.3.3,0,0,0,.31.25A1.11,1.11,0,0,0,294.52,44.8Zm0-3.57a1.05,1.05,0,0,0-.14-.46c0-.09,0-.19-.11-.18h-.09c.15.64-.28,1.06-.33,1.63,0,.09.12.27.22.26s.17-.11.27-.12A1.6,1.6,0,0,0,294.49,41.23Zm.09-3.21c-.28,0-.46,0-.45.23s.14.46.32.44.56-.14.62-.43S294.68,38.1,294.58,38Zm-1.08-7a.8.8,0,0,0,.34.62c.28.07.45-.13.63-.24a.85.85,0,0,0,.31-.78c0-.28-.15-.65,0-.94.09-.1,0-.19-.12-.27-.3-.26-1,0-1,.37S293.47,30.68,293.5,31.06Zm.36-12.93c-.18,0-.26.21-.24.4s0,.28.31.34.26-.21.25-.39S294.05,18.11,293.86,18.13Zm1.51-4.28c.28,0,.36-.22.25-.4s-.12-.27-.4-.24c-.09,0-.18.11-.16.29S295.18,13.87,295.37,13.85Zm.15-2.55c0,.37,0,.75.36.81s.63-.24.69-.62A1.13,1.13,0,0,1,297,11c.43-.41.4-.79-.09-1a.82.82,0,0,1-.53-.7c0-.1-.11-.18-.3-.17s-.09.11-.07.29a1.71,1.71,0,0,1-.29,1A1.24,1.24,0,0,0,295.52,11.3Z"/><path class="cls-1" d="M333,79.27c.06.2-.14.27-.24.35a18.57,18.57,0,0,1-6.71,1.9,10.41,10.41,0,0,1-2.9-.22l-3.72-.52a15.91,15.91,0,0,1-13.94-14.65,16.54,16.54,0,0,1,.15-3.77l1.16-8.26c.42-3,.79-5.66,1.2-8.54l2.34-16.72a16.56,16.56,0,0,1,4.23-9.16l.64-.57c.11-.08.22-.16.3-.05s0,.09,0,.18L315,20.69a14.66,14.66,0,0,0-.62,4.46,15.41,15.41,0,0,1-.29,2,36.26,36.26,0,0,0-.82,4.52c-.85,6-1.81,12.16-2.64,18.1a62.84,62.84,0,0,0-1,10.28A22,22,0,0,0,312.35,70l.22.41c.42.43,0,1.14.35,1.56s1,0,1.46.39c.16.22.25.23.41.44s.22.5-.19.73c-.11.08-.29,0-.4.13s-.55-.17-.6.2c.07.2.45.16.64.19a.8.8,0,0,0,.48,0,3.37,3.37,0,0,1,3,1.17,7.19,7.19,0,0,0,4,2.08,5.65,5.65,0,0,1,.62.27,17.29,17.29,0,0,0,5.25,1,6.73,6.73,0,0,1,1.32.08,8.83,8.83,0,0,0,3.82.45C332.84,79.15,333,79.09,333,79.27ZM309.44,63.75c0-.19,0-.39-.23-.41a.38.38,0,0,0-.13.26c0,.28-.06.47.14.4S309.41,63.93,309.44,63.75Zm28.27,11.73a17.76,17.76,0,0,1-5.4,1.42,4.46,4.46,0,0,1-1.59-.13,22.7,22.7,0,0,0-4.37-.61,16.28,16.28,0,0,1-5.56-1.54,12.1,12.1,0,0,1-4.18-3.24c-.18-.12-.24-.32-.34-.33-2.51-1.68-3.27-4.34-3.83-7.07a18.24,18.24,0,0,1-.36-6.87c.23-3,.66-6.06,1.16-8.92.35-1.85.58-3.52.94-5.36.23-1,0-2,.24-3.1a23.12,23.12,0,0,0,.6-3.6c.21-1.49.45-3.16.55-4.56a21.77,21.77,0,0,1,.56-3.34,11.31,11.31,0,0,0,.43-3.06,17.07,17.07,0,0,1,1.79-6.66,6.37,6.37,0,0,0,.54-1.16A2.81,2.81,0,0,1,320,15.9a3.26,3.26,0,0,0,.78-.83,16.75,16.75,0,0,1,13.23-5.25,29.23,29.23,0,0,1,7.41,1.23,16.11,16.11,0,0,1,11.09,15.38,22.85,22.85,0,0,1-.27,2.62l-2.35,16.71c-.76,5.48-1.53,11-2.32,16.53C346.83,68.52,343.38,72.87,337.71,75.48ZM316,60.22c0-.09-.06-.29-.15-.31a.52.52,0,0,0-.4.14c0,.18,0,.38.23.41A.32.32,0,0,0,316,60.22Zm.29,15.47c-.1,0-.08-.1-.18-.12s-.18,0-.2.07,0,.09.07.2S316.18,75.77,316.29,75.69Zm2.55-22.27c.22-.16.32-.24.35-.42s-.12-.49-.41-.44a5,5,0,0,0-1.95.39.5.5,0,0,0-.29.72c.24.31.54.83.89.4A2.84,2.84,0,0,1,318.84,53.42Zm3.27-9.1-.17-.79c-.07-.19-.12-.49.07-.55.55-.49.25-1.1.34-1.75.15-1-.5-1.78-.86-2.59-.07-.2-.35-.23-.53-.26a1.9,1.9,0,0,1-1.36-.47.94.94,0,0,0-1.48.45l-.2,1.39c-.23,1,0,2.18-.16,3.2,0,.18-.08.56.19.69s.49-.12.79-.27c.53-.4.53-.4,0-.85l-.25-.22a.22.22,0,0,1,0-.39s.2-.06.28,0c.61.37,1.31.75,1.26,1.79a5.52,5.52,0,0,0,.07.86c.12.49,1.29,1.6,1.61,1.36C322.22,45.56,322,45,322.11,44.32Zm-4.24,3.19a.31.31,0,0,0,.18.12c.08.11.18,0,.2-.07a.36.36,0,0,0-.07-.2c-.19,0-.28,0-.3.15Zm.58,12.1a.09.09,0,0,1-.08-.1l-.19,0c0,.1,0,.19.07.2A.36.36,0,0,1,318.45,59.61Zm.15-7.83c.19,0,.29-.05.31-.15a.26.26,0,0,0-.24-.32c-.1,0-.29.06-.31.15A.31.31,0,0,0,318.6,51.78ZM319,34.31c-.08.56.06,1,.51,1.12a.91.91,0,0,0,.95-.72c0-.48-.6-.47-.93-.8S319.1,34.05,319,34.31Zm.8-3a.09.09,0,0,1-.1.08c0,.09,0,.19.06.2l.11-.08A.31.31,0,0,0,319.77,31.3Zm-.58,28.42c0,.19.15.3.25.22s.2-.06.21-.15c0-.28,0-.39-.22-.42s-.32.24-.24.35Zm.69-10.32c.56.08,1.27-.29,1.33-.67s-.35-.9-.72-.95A.53.53,0,0,0,320,48c-.11.17-.15.45-.27.62C319.36,49,319.43,49.24,319.88,49.4Zm-.29,11.51-.08-.1c-.09,0-.09,0-.2.06l.08.11A.3.3,0,0,0,319.59,60.91Zm.93-5.93c.05-.37.1-.74-.36-.8s-.5.21-.57.67l-.06.47c0,.09-.24.34,0,.47a.79.79,0,0,0,.68-.09A1,1,0,0,0,320.52,55Zm.18-22.88c-.2.06-.38,0-.42.32s.16.21.34.23A6.67,6.67,0,0,1,323,33c.07.1.18,0,.19-.07s0-.28-.05-.29L322,32.18a6.14,6.14,0,0,1-1.32-.09Zm-.18-8.17c0,.09.08.1.18.12a.09.09,0,0,0,.1-.08c0-.1,0-.19-.07-.2A.19.19,0,0,0,320.52,23.93Zm1.06,43.7c0-.38-.41-.44-.69-.48a1.65,1.65,0,0,0-1.24.78c0,.18.16.21.25.22a3.58,3.58,0,0,0,1.05,0C321.33,68.07,321.53,68,321.58,67.63ZM321,52.12a.52.52,0,0,0-.14-.4c-.37,0-.49.12-.62.39a.29.29,0,0,0,.24.31C320.78,52.46,320.88,52.38,321,52.12Zm-.22,13c-.38-.05-.68.1-.73.47s.12.49.38.62c.47.07.67,0,.84-.55C321.33,65.42,321.17,65.2,320.8,65.15ZM321.34,37a3.11,3.11,0,0,0,.73.2.34.34,0,0,0,.42-.32c0-.18-.15-.3-.33-.33a2.51,2.51,0,0,1-.9-.32.33.33,0,0,0-.51.22c-.13.26-.06.46.22.5A.44.44,0,0,0,321.34,37Zm.36-14.72a.33.33,0,0,0,.07.2.35.35,0,0,0,.29,0c0-.1-.07-.2-.15-.31A.21.21,0,0,0,321.7,22.29Zm.42,5.75c-.08-.11-.18,0-.21.16s0,.18.16.21a.21.21,0,0,0,.21-.16c0-.1,0-.19-.16-.22Zm1.05-.05a.41.41,0,0,0-.42.32.44.44,0,0,0,.3.52c.28,0,.41-.23.44-.41s0-.39-.32-.43Zm.53,41.45a.26.26,0,0,0-.24-.32c-.28,0-.39,0-.52.31s.16.21.33.33C323.47,69.69,323.66,69.72,323.7,69.44Zm12.1-7.29a9.43,9.43,0,0,0,.5-2.21,46.39,46.39,0,0,1,.73-5.2,13.42,13.42,0,0,0,.56-3.33,11.49,11.49,0,0,1,.17-1.87c.32-2.32.77-4.81.92-7.25a40.83,40.83,0,0,1,1.11-6.57,14.09,14.09,0,0,0,.28-1.95,19.9,19.9,0,0,1,.47-3.34,16.74,16.74,0,0,0,.33-3.74,4.49,4.49,0,0,0-3.23-4.62,13.68,13.68,0,0,0-5.52-.49A3.89,3.89,0,0,0,329,24a19.28,19.28,0,0,0-1.11,3.82l-2.18,15.5c-.75,5.39-1.47,10.5-2.22,15.88a4.67,4.67,0,0,0,3.89,5.28,19.12,19.12,0,0,0,4.51.26A4,4,0,0,0,335.8,62.15Zm-11.51,6.43c0-.09-.08-.11-.17-.12v.09c0,.09.06.2.17.12Zm2-48.58c.28,0,.43-.32.81-.36a2.23,2.23,0,0,0,.53-.4c0-.09-.07-.2-.33-.33-.65-.09-.73.47-1.06.8C326.12,19.79,326.1,20,326.28,20Zm1.28,50.93c.08-.56-.26-.89-1-1-.28,0-.66,0-.71.37s.61,1,1.18,1C327.4,71.38,327.52,71.21,327.56,70.93Zm1.57-53.65a5.37,5.37,0,0,1,.74.76c.15.31.35.24.65.09.12-.17.32-.24.36-.51,0-.1,0-.19-.07-.2-.45-.16-.57-.65-1-.9a.46.46,0,0,0-.66,0A.57.57,0,0,0,329.13,17.28Zm.31-2.23c.07.2.15.3.33.33s.28,0,.21-.16-.14-.31-.33-.33A.19.19,0,0,0,329.44,15.05Zm.76,56.63c-.07-.2.06-.46-.12-.49s-.34.42-.37.61a.18.18,0,0,0,.05.29C330.13,72.14,330.08,71.85,330.2,71.68Zm8.42-42.47a29.32,29.32,0,0,0-.77,4.82c-.26,1.86-1,3.74-1.07,5.63-.22,4.23-1.08,8.36-1.48,12.57-.38,2.69-.8,5.66-1.27,8.34a2.27,2.27,0,0,1-2.65,2c-.84,0-1-.24-1-1.09l.13-.93,1.92-13.65,1.87-13.37a8.88,8.88,0,0,0,.13-2.25,4.46,4.46,0,0,0-3-4.3c-1-.43-1-.43-.66-1.42.52-1.63,1.43-2.07,3-1.67.19,0,.27.14.47.07a4.41,4.41,0,0,1,3.25.46c.71.29.77.58.44,1.57a1.85,1.85,0,0,1-.28.63c-.13.26-.17.54.22.5.76-.08.9.32.82.87C338.65,28.36,338.69,28.75,338.62,29.21ZM335.7,70.27a2.26,2.26,0,0,0-1.35-.47c-.49.12-.55.49-.6.86a2.84,2.84,0,0,1,0,1c0,.18,0,.27.23.41.08.1.28,0,.38,0,.44-.41.88-.82,1.3-1.14A.35.35,0,0,0,335.7,70.27Zm-.59-1.88a.1.1,0,1,0,.08.11A.1.1,0,0,0,335.11,68.39ZM337.82,16c0,.38.59.55.87.59s.5-.21.62-.39.05-.37-.14-.39a1.82,1.82,0,0,0-1.22-.08C337.86,15.76,337.83,15.94,337.82,16Zm1.72-.81a.2.2,0,0,0,.22-.15.42.42,0,0,0-.23-.42c-.09,0-.19,0-.21.16S339.37,15.12,339.54,15.23ZM339.81,70a.31.31,0,0,0-.17-.12c-.37,0-.35.43-.56.59l-.09,0c-.19,0-.36-.14-.57,0-.09,0,0,.09,0,.18.27.13.48,0,.69-.18S339.74,70.46,339.81,70Zm1-2.51c0-.09-.05-.29-.16-.21a.33.33,0,0,0-.41.23c-.1.07,0,.18.16.21A.4.4,0,0,0,340.82,67.49Zm1-51.08.24.32c.19,0,.36.14.54.17s.63.27.68-.1-.23-.41-.49-.54a.78.78,0,0,0-.65-.09Zm0,33a.21.21,0,0,0-.21.16c0,.28.15.31.33.33s.19,0,.2-.06A.4.4,0,0,0,341.84,49.45Zm1.49-4.52a.45.45,0,0,0,.5-.21c0-.19.05-.38,0-.39a1.61,1.61,0,0,0-1.26-.46c-.29.05-.42.32-.38.7s.24.32.45.16S343.06,44.8,343.33,44.93Zm-.54,1.15c0-.09.1-.08.12-.17s-.08-.11-.18-.12a.28.28,0,0,1-.11.17A.38.38,0,0,1,342.79,46.08Zm2-4.74c.52-.3.29-.71.16-1.11s-.44-.25-.63-.28-.58.11-.62.39a.62.62,0,0,0,.28.7c.26.13.54.17.81.3a.77.77,0,0,1-.4.14c-.2.07-.41.22-.25.44a.52.52,0,0,0,.43.34c.19-.07.22-.25.25-.44S344.75,41.53,344.78,41.34Zm-.47-10.85c-.09,0-.19.06-.11.17a.09.09,0,0,0,.08.11c.09,0,.19-.07.11-.18s-.08-.1-.08-.1Zm0,19.59c-.19,0-.28,0-.29.06s0,.09.06.2l.19,0A.17.17,0,0,0,344.31,50.08ZM345.38,25c0,.27,0,.47.3.51A.52.52,0,0,0,346,25c-.07-.19-.14-.39-.32-.42S345.4,24.77,345.38,25Zm.23,27.3c-.08-.11-.05-.29-.24-.32a.24.24,0,0,0-.31.24,1.81,1.81,0,0,0-.2.73c0,.18.15.3.33.33s.2-.07.32-.24l0-.28Zm.44-22.67c.09,0,.11-.08.2-.06s0-.1-.08-.11-.09,0-.19,0A.31.31,0,0,1,346.05,29.59Zm.65,15a.63.63,0,0,0-.47-.73c-.19,0-.3.15-.34.43s.12.49.4.53S346.67,44.73,346.7,44.55Zm1.76-20c.22-.15.43-.31.29-.71s-.42-.35-.71-.29a2.88,2.88,0,0,0-.48,0c-.46-.07-.66,0-.73.46a.72.72,0,0,0,.65.76A1.09,1.09,0,0,0,348.46,24.53ZM348.18,34c.07-.46.12-.83-.44-.91s-.61.29-.66.66.14,1.07.52,1C348.16,34.81,348.05,34.23,348.18,34Zm.39-4.77c-.2.07-.23.25-.35.42s0,.19.07.2c.39,0,.33-.33.44-.41C348.66,29.2,348.67,29.11,348.57,29.19Zm.22-2.9c-.28,0-.4.13-.44.41s0,.66.28.7.41-.23.46-.6a.43.43,0,0,0-.3-.52Z"/><path class="cls-1" d="M378.76,82.84c0,.2-.17.24-.29.3a18.44,18.44,0,0,1-6.92.86,10.21,10.21,0,0,1-2.84-.66l-3.59-1.08a15.91,15.91,0,0,1-11.55-16.6,16.24,16.24,0,0,1,.72-3.7l2.4-8c.87-2.87,1.65-5.48,2.49-8.26L364,29.55a16.48,16.48,0,0,1,5.57-8.41l.73-.47c.11-.06.23-.13.29,0s0,.09-.05.18l-.7,1.36a14.42,14.42,0,0,0-1.3,4.31,17.13,17.13,0,0,1-.59,2,39.49,39.49,0,0,0-1.51,4.35c-1.75,5.83-3.63,11.73-5.35,17.48a63.55,63.55,0,0,0-2.53,10,21.94,21.94,0,0,0,1.13,10.23l.17.44c.34.5-.15,1.13.1,1.6s1,.21,1.38.61c.13.24.22.26.35.5s.13.53-.31.69c-.12.06-.3,0-.41.07s-.51-.25-.62.11.42.22.6.28a.83.83,0,0,0,.47,0,3.35,3.35,0,0,1,2.75,1.61,7.2,7.2,0,0,0,3.61,2.65c.24.18.42.23.57.37a16.83,16.83,0,0,0,5,1.81,6.86,6.86,0,0,1,1.29.29,8.75,8.75,0,0,0,3.7,1C378.6,82.69,378.81,82.66,378.76,82.84ZM357.82,63.9c.05-.17,0-.38-.16-.43a.31.31,0,0,0-.17.24c-.09.27-.14.45.07.41S357.76,64.08,357.82,63.9ZM384,79.81a17.53,17.53,0,0,1-5.56.57,4.61,4.61,0,0,1-1.56-.36,22.35,22.35,0,0,0-4.22-1.27,16.4,16.4,0,0,1-5.26-2.37,12.26,12.26,0,0,1-3.64-3.84c-.15-.14-.19-.35-.28-.38-2.23-2-2.57-4.79-2.71-7.57a18.42,18.42,0,0,1,.68-6.84c.69-2.93,1.58-5.89,2.51-8.65.63-1.77,1.11-3.39,1.74-5.15.39-1,.3-2,.72-3a23.59,23.59,0,0,0,1.14-3.48c.43-1.43.92-3.05,1.23-4.42a21.13,21.13,0,0,1,1.06-3.21,11.38,11.38,0,0,0,.9-3,17,17,0,0,1,2.78-6.31,7,7,0,0,0,.71-1.06,2.81,2.81,0,0,1,1.35-1.26,3.21,3.21,0,0,0,.9-.71,16.75,16.75,0,0,1,13.88-3.17,29.07,29.07,0,0,1,7.13,2.34,16.15,16.15,0,0,1,8.63,16.9,26,26,0,0,1-.67,2.54l-4.86,16.16c-1.6,5.3-3.19,10.6-4.81,16C394.05,74.32,390,78.09,384,79.81Zm-21.21-3.06c-.09,0-.07-.11-.16-.14s-.18-.06-.2,0,0,.09,0,.21A.47.47,0,0,0,362.77,76.75Zm2.06-15.34c0-.09,0-.29-.09-.32a.53.53,0,0,0-.42.07c-.05.18,0,.39.16.44A.29.29,0,0,0,364.83,61.41Zm3.85-6.28c.24-.13.35-.19.41-.37s0-.5-.34-.49a5,5,0,0,0-2,.09.5.5,0,0,0-.39.66c.18.35.41.91.81.54A2.86,2.86,0,0,1,368.68,55.13Zm-1.33,6.06a.09.09,0,0,1-.06-.12l-.18,0c0,.09-.06.18,0,.21A.31.31,0,0,1,367.35,61.19Zm1.28-12s.06.12.15.14.18.06.2,0a.33.33,0,0,0,0-.21c-.18,0-.27-.08-.32.1Zm4.67-2.51-.06-.8c0-.21,0-.5.17-.54.61-.4.41-1,.6-1.68.3-1-.23-1.83-.47-2.68,0-.21-.3-.29-.48-.35a1.86,1.86,0,0,1-1.27-.67.94.94,0,0,0-1.53.22l-.41,1.35c-.38,1-.35,2.15-.65,3.13-.05.18-.16.54.08.71s.51,0,.83-.14c.58-.31.58-.31.15-.84l-.21-.26a.21.21,0,0,1,0-.38s.2,0,.27.08c.54.46,1.18.94,1,2a5.39,5.39,0,0,0-.06.86c0,.5,1,1.78,1.38,1.59C373.22,47.88,373.11,47.26,373.3,46.63Zm-4.61,6.84c.18.05.3,0,.33-.1a.25.25,0,0,0-.19-.35c-.09,0-.3,0-.32.1A.29.29,0,0,0,368.69,53.47Zm.54,16.12c0-.39-.34-.49-.61-.57a1.64,1.64,0,0,0-1.35.57c0,.18.13.23.22.26a3.26,3.26,0,0,0,1,.12C368.91,70,369.12,70,369.23,69.59Zm-1-7.92c.18,0,.21,0,.24-.13.08-.27,0-.38-.16-.44s-.36.19-.29.31S368.17,61.73,368.28,61.67Zm0,1-.06-.12c-.09,0-.09,0-.21,0l.07.11A.27.27,0,0,0,368.28,62.65Zm.55,4.37a.56.56,0,0,0-.79.35c-.2.33,0,.5.28.68.45.13.66.09.91-.42C369.31,67.36,369.19,67.13,368.83,67Zm1.27-10.09c.11-.36.22-.72-.23-.86s-.53.14-.67.59l-.13.45c0,.09-.29.3-.05.47a.8.8,0,0,0,.69,0A1,1,0,0,0,370.1,56.93Zm.22-5.62c.54.17,1.3-.09,1.41-.45s-.2-1-.56-1a.5.5,0,0,0-.53.13c-.15.15-.23.42-.37.57C369.86,50.88,369.9,51.09,370.32,51.31Zm1.4-15.05c-.17.54-.09,1,.33,1.18a.91.91,0,0,0,1.05-.57c0-.47-.52-.54-.8-.92S371.89,36,371.72,36.26ZM371,54.17a.5.5,0,0,0-.07-.41c-.36-.11-.51,0-.68.28a.32.32,0,0,0,.19.36C370.74,54.48,370.86,54.41,371,54.17ZM373,33.41a.09.09,0,0,1-.12.06c0,.09-.05.18,0,.21l.11-.07A.27.27,0,0,0,373,33.41Zm.8.92c-.21,0-.39,0-.47.25s.12.24.3.29a6.46,6.46,0,0,1,2.25.68c.06.11.18.05.2,0s.09-.27,0-.29l-1-.6a6.48,6.48,0,0,1-1.28-.29Zm-.13,5a3.31,3.31,0,0,0,.7.31.34.34,0,0,0,.46-.26c.06-.17-.1-.32-.27-.37a2.83,2.83,0,0,1-.85-.45.33.33,0,0,0-.53.13c-.17.25-.13.45.14.53A.41.41,0,0,0,373.64,39.29ZM371,71.7c.06-.18,0-.29-.19-.35s-.38,0-.55.23.12.23.27.37C370.78,71.92,371,72,371,71.7Zm3.79-45.47c0,.09.06.12.15.15a.1.1,0,0,0,.12-.07c0-.09.06-.18,0-.2A.2.2,0,0,0,374.83,26.23Zm9.28,40.1a8.59,8.59,0,0,0,.83-2.1,51.91,51.91,0,0,1,1.51-5,13.54,13.54,0,0,0,1.07-3.2,11.22,11.22,0,0,1,.45-1.82c.67-2.25,1.49-4.65,2-7a41.76,41.76,0,0,1,2.1-6.32,14,14,0,0,0,.57-1.88,19.73,19.73,0,0,1,1-3.23,16.94,16.94,0,0,0,.9-3.65A4.49,4.49,0,0,0,392,27a13.75,13.75,0,0,0-5.38-1.32,3.9,3.9,0,0,0-3.41,1.91,19.47,19.47,0,0,0-1.68,3.61l-4.51,15c-1.56,5.21-3.05,10.15-4.62,15.36a4.69,4.69,0,0,0,3.05,5.81,18.74,18.74,0,0,0,4.42.94A4,4,0,0,0,384.11,66.33Zm-12.35,4.61c0-.09-.06-.12-.15-.14l0,.09c0,.09,0,.2.15.14Zm4-40.41c-.06-.11-.18-.05-.23.13s-.06.18.12.23a.19.19,0,0,0,.23-.12c0-.09.06-.18-.12-.23Zm.45-5.73a.34.34,0,0,0,0,.2.32.32,0,0,0,.3,0,.56.56,0,0,0-.1-.32A.21.21,0,0,0,376.24,24.8Zm.59,5.85a.41.41,0,0,0-.47.25.43.43,0,0,0,.23.56c.27.08.44-.16.49-.34s0-.39-.25-.47Zm-2.2,43.11c.16-.54-.11-.91-.83-1.13-.27-.08-.66-.1-.77.26s.45,1.11,1,1.19A.4.4,0,0,0,374.63,73.76Zm6.49-50.53c.27.08.47-.25.85-.23a2.68,2.68,0,0,0,.59-.32c0-.09,0-.2-.28-.38-.63-.18-.79.35-1.17.63C381,23,380.94,23.18,381.12,23.23Zm-4,51.67c0-.2.13-.44-.05-.5s-.4.37-.46.55a.19.19,0,0,0,0,.3C377,75.35,377,75.06,377.13,74.9Zm14.79-40.69a28.52,28.52,0,0,0-1.5,4.64c-.54,1.8-1.55,3.55-1.91,5.4-.86,4.15-2.35,8.11-3.38,12.2-.79,2.61-1.65,5.48-2.52,8.06a2.27,2.27,0,0,1-2.92,1.57c-.84-.15-1-.39-.81-1.22l.27-.9q2-6.6,4-13.2L387,37.83a9.16,9.16,0,0,0,.47-2.21,4.48,4.48,0,0,0-2.31-4.71c-.9-.57-.9-.57-.43-1.5.76-1.53,1.73-1.83,3.2-1.19.18.05.25.17.45.13a4.42,4.42,0,0,1,3.14.95c.67.4.68.69.2,1.63a1.55,1.55,0,0,1-.37.57c-.17.24-.25.51.14.53.77,0,.84.45.68,1C392.07,33.38,392.05,33.76,391.92,34.21ZM384.35,21a5.55,5.55,0,0,1,.62.87c.1.32.3.29.63.19.14-.15.35-.19.43-.46,0-.09.05-.18,0-.21-.42-.22-.47-.72-.86-1-.13-.23-.42-.22-.66-.1A.57.57,0,0,0,384.35,21Zm.65-2.16c0,.21.09.33.27.38s.27.08.24-.12-.1-.33-.28-.38A.19.19,0,0,0,385,18.81Zm-2.22,55.54a2.29,2.29,0,0,0-1.27-.67c-.5,0-.61.4-.72.76a2.82,2.82,0,0,1-.18.93c-.05.18-.08.26.16.44.07.11.27.08.39,0a15.33,15.33,0,0,1,1.46-.93A.36.36,0,0,0,382.78,74.35Zm-.3-1.95a.09.09,0,0,0-.11.07.08.08,0,0,0,.06.11.09.09,0,0,0,.12-.06A.1.1,0,0,0,382.48,72.4Zm4.4,2.31a.33.33,0,0,0-.15-.15c-.36-.11-.41.37-.64.5L386,75c-.18,0-.33-.2-.56-.07-.09,0,0,.09-.06.18.24.17.48,0,.71-.08S386.75,75.16,386.88,74.71Zm1.39-2.33c0-.09,0-.3-.13-.23s-.39,0-.44.16-.05.18.13.23S388.12,72.53,388.27,72.38Zm4.86-51.32c0,.39.49.64.76.72s.53-.13.68-.28.11-.36-.07-.42a1.9,1.9,0,0,0-1.2-.26C393.21,20.8,393.16,21,393.13,21.06Zm1.82-.52a.22.22,0,0,0,.24-.13A.4.4,0,0,0,395,20c-.09,0-.18,0-.24.13S394.8,20.39,395,20.54ZM392,54.71a.2.2,0,0,0-.24.12c-.08.27.1.33.28.38s.18.06.21,0A.41.41,0,0,0,392,54.71Zm2.16-4.25a.44.44,0,0,0,.53-.13c.05-.18.1-.36,0-.39a1.62,1.62,0,0,0-1.17-.65c-.3,0-.47.26-.49.64s.19.35.43.23S393.93,50.29,394.18,50.46Zm-.71,1.06c0-.09.11-.06.14-.15s-.06-.12-.15-.14a.34.34,0,0,1-.15.15C393.4,51.4,393.47,51.52,393.47,51.52Zm.89,4.19c-.18-.06-.27-.08-.3,0s0,.09,0,.2l.18.06A.18.18,0,0,0,394.36,55.71Zm2.69-33.66.18.35c.18.05.34.2.52.25s.57.37.68,0-.16-.44-.4-.61a.78.78,0,0,0-.63-.19Zm-.9,25.09c.56-.22.4-.66.33-1.08s-.4-.31-.58-.37-.59,0-.67.29a.64.64,0,0,0,.17.74c.24.17.51.25.75.42a.69.69,0,0,1-.41.07c-.2,0-.44.16-.31.4a.51.51,0,0,0,.37.4c.2,0,.26-.21.31-.39S396.1,47.32,396.15,47.14Zm-.83,10.91c-.06-.11,0-.3-.19-.35a.25.25,0,0,0-.35.19,2,2,0,0,0-.31.69c-.05.18.1.32.28.38s.21,0,.35-.19l.08-.27Zm2-21.71c-.09,0-.21,0-.14.15a.09.09,0,0,0,.06.12c.09,0,.2,0,.14-.16a.08.08,0,0,0-.06-.11Zm.21,14.26a.62.62,0,0,0-.35-.79c-.18-.06-.32.1-.4.37s0,.5.31.58S397.51,50.78,397.56,50.6ZM399.24,31c-.08.27-.05.48.22.56a.54.54,0,0,0,.41-.37c0-.21-.07-.41-.25-.47S399.29,30.85,399.24,31Zm0,4.69c.09,0,.12-.06.21,0a.09.09,0,0,0-.07-.11c0-.09-.09,0-.18-.06A.27.27,0,0,1,399.2,35.72Zm1.44,4.64c.14-.45.25-.8-.29-1s-.65.2-.76.56,0,1.07.36,1.09C400.49,41.2,400.47,40.61,400.64,40.36Zm1.72-9.27c.23-.13.46-.25.39-.67s-.37-.4-.66-.39a3.71,3.71,0,0,0-.48-.05c-.45-.13-.65-.1-.79.35a.72.72,0,0,0,.53.85A1.11,1.11,0,0,0,402.36,31.09Zm-.61,4.61c-.21,0-.26.22-.4.37s-.06.18,0,.21c.39,0,.38-.28.5-.34C401.84,35.73,401.87,35.64,401.75,35.7Zm.66-2.84c-.27-.08-.41.08-.5.34s-.09.66.17.74.44-.16.55-.52c.06-.18.05-.48-.22-.55Z"/><path class="cls-1" d="M414.47,53.31c-.73,2.23-1,4.58-1.62,6.75-.87,3.26-1.82,6.4-2.4,9.64-.79,3.67-1.77,7.39-2.74,11a9.26,9.26,0,0,0-.17,1.5,11,11,0,0,1-.5,2.49,36.12,36.12,0,0,0-1.14,4.35c-.13.55-.35,1.07-.48,1.62a4.78,4.78,0,0,1-.92,1.81c-1,1.39-.26,3.12,1.52,3.73a18.38,18.38,0,0,0,2.21.44,12.12,12.12,0,0,1,3.1.74,19.48,19.48,0,0,0,2.3.46c2.12.41,4.2,1,6.27,1.6,3.49,1.12,7,2.16,10.73,1.89l.27.07c0,.18-.22.14-.24.23a17,17,0,0,1-8.31,1.67A9.7,9.7,0,0,1,420,103l-19.69-4.72-.55-.13c-.36-.09-.48-.41-.14-.62a6.2,6.2,0,0,0,1.49-3.4l13.53-56.44a4,4,0,0,0-.16-2.55c-.19-.43.06-.66.42-.57l3.38.81c.45.11.37.47.28.84l-1.29,5.38c-.42,1.73-.85,3.55-1.27,5.29ZM449.8,70.84c-1.29,5.38-2.4,10.8-3.87,16.14a16.43,16.43,0,0,1-10.62,11.34,17.52,17.52,0,0,1-7.16.89,21.6,21.6,0,0,1-5.42-1.11c-2.28-.55-6.16-2.06-9.17-2.39-.93-.13-2-.48-3-.72a12.93,12.93,0,0,0-2.69-.45,3.66,3.66,0,0,1-1.35-.42c-.25-.16-.48-.41-.14-.62,1-.82,1.05-2,1.38-2.94a25.16,25.16,0,0,1,1.07-4.47,20.87,20.87,0,0,0,1-4.79,7.07,7.07,0,0,1,.83-2.69,1.21,1.21,0,0,0,.23-.52A24.22,24.22,0,0,1,412,73c.26-1.09.34-2.23.6-3.33a2.43,2.43,0,0,1,.45-1,1.16,1.16,0,0,0,.26-1.09,2.34,2.34,0,0,1,.26-1.1,14,14,0,0,0,.9-3.35,9.07,9.07,0,0,1,.75-3.1,20.67,20.67,0,0,0,.34-2.23c.5-2.48,1.06-4.85,1.75-7.29l1.55-6.48c.64-2.26,1-4.67,1.66-6.93.4-1.25.77-2.42,1.08-3.69a3.73,3.73,0,0,0-.12-2.34c-.27-.46,0-.69.43-.58.2,0,.36.09.55.13l19.05,4.57A16.34,16.34,0,0,1,454,52.47c-.15,1-.3,2.05-.56,3.14C452.25,60.63,451,65.73,449.8,70.84Zm-37,19.37c.18.05.32-.11.36-.3s0-.29-.21-.33-.31.11-.36.29a.25.25,0,0,0,.21.34Zm1.42-8.33c-.05-.21,0-.39-.28-.46s-.24.23-.29.42-.06.27.21.33S414.14,82.06,414.18,81.88Zm1.28,7.92c-.18,0-.54-.13-.61.14s-.47.37-.27.71.39,0,.6-.05l.18,0c.29,0,.59,0,.56-.34S415.72,90,415.46,89.8Zm1.24,2.9.45.11a1,1,0,0,0,.55-.26c0-.18,0-.29-.19-.43s-.25-.15-.46-.11l-.52.17c-.2,0-.48,0-.52.16s.32.27.5.32ZM418.14,75c.07-.27-.19-.43-.48-.4a5.52,5.52,0,0,0-2.07.18c-.41.09-.52.55-.22.91l.39.38c.23.25.44.2.5-.07a.66.66,0,0,1,.72-.6h.78C418,75.36,418.07,75.29,418.14,75Zm-1.39,6.61c-.05-.2,0-.38-.28-.45a.22.22,0,0,0-.23.14.41.41,0,0,0,.28.45A.21.21,0,0,0,416.75,81.62Zm2.17,8.24c0-.19.09-.37-.19-.43s-.55-.52-.82-.2l-.7.51c-.22.14-.31.5,0,.48a8.47,8.47,0,0,0,1.52.07A.7.7,0,0,0,418.92,89.86ZM418,88.3c.37.08.66.06.77-.4a.43.43,0,0,0-.35-.56c-.27-.07-.93.26-.88.46C417.49,88.17,417.88,88.16,418,88.3Zm.08-6.35a1,1,0,0,0-.44-.59c-.18,0-.39,0-.43.19s.18.43.34.57S418,82.2,418.12,82Zm-.7-8.75c-.09,0-.37-.09-.32.12a.91.91,0,0,0,.53.61.26.26,0,0,0,.34-.21C418.06,73.36,417.69,73.27,417.42,73.2Zm-.11-3.59c.19,0,.39,0,.43-.19s-.11-.31-.3-.36a.29.29,0,0,0-.33.21.24.24,0,0,0,.2.34Zm2.12,7.26a.44.44,0,0,0-.16-.52.57.57,0,0,0-.73-.18c-.25.23-.39.39-.36.69a.68.68,0,0,1-.27.7.18.18,0,0,0-.06.28.09.09,0,0,0,.07.11C418.87,78,419.12,77.76,419.43,76.87Zm-1.75-12c-.05.18-.18.34-.11.45-.09.37.07.5.41.29a2.65,2.65,0,0,1,.88-.46c.21,0,.25-.23.09-.36a1.35,1.35,0,0,0-.94-.52C417.72,64.31,417.72,64.69,417.68,64.88Zm3.35,27c0-.21-.07-.5-.27-.46-.37-.08-.6.06-.66.33s0,.39.19.43S420.85,92.25,421,91.91Zm-1.08-22c-.54-.13-.68,0-.77.39s-.13.55-.51.55c-.09,0-.3,0-.32.12s.14.23.23.25c.48.4.91.6,1.41.14.23-.14.61-.14.52-.55S420.32,69.94,420,69.86Zm-1.53-8.47-.22.91a2.59,2.59,0,0,1-.11.84c-.06.28,0,.39.26.55.64.15,1,.81,1.35,1.19.23.25,0,.68,0,1a1.93,1.93,0,0,0,.89,2,.65.65,0,0,1,.46.5c0,.09-.07.27.11.32s.23-.14.27-.33c.29-.79.76-1.55.21-2.45-.12-.32-.1-.8.29-.8s.56-.35.47-.76a1,1,0,0,1,.15-1c.13-.16.2-.44,0-.48-.59-.34-.46-.88-.53-1.38-.21-.73-.28-.84-1-.81-.47,0-.86,0-1.12-.56a.59.59,0,0,0-.68-.36.64.64,0,0,0-.52.55ZM420,74.31c0-.18.11-.45-.16-.52a.93.93,0,0,0-.79.49c-.07.27.18.43.37.47C419.82,74.84,420,74.59,420,74.31Zm1.44,16.93c.18.05.3,0,.32-.11a.3.3,0,0,0-.21-.34.25.25,0,0,0-.34.2C421.21,91.18,421.3,91.2,421.48,91.24Zm3.79-23.87-2.86,11.95c-.33,1.36-.65,2.73-.91,4.21-.33,1.76-.26,1.87,1.57,2.31,2,.48,3.92.94,5.94,1.33a4,4,0,0,0,4.31-1.48,6.75,6.75,0,0,0,1.56-3.29A36.1,36.1,0,0,1,435.93,78a15.54,15.54,0,0,0,.57-2,11,11,0,0,1,.52-3,23.73,23.73,0,0,0,.7-2.53c.54-3,1.44-6,2-9.16.17-1.12.61-2.17.87-3.26l1-4.2a7.15,7.15,0,0,0,.57-2.37c-.12-2.34-1.13-4.13-3.39-4.76a48.17,48.17,0,0,0-7.3-1.75c-.36-.09-.5.07-.56.34-.66,2-1.12,3.88-1.67,5.77C427.78,56.5,426.56,62,425.27,67.37Zm-5.56-11-.07.27a.51.51,0,0,0,.42.68c.46.11.75.08.95-.35.16-.25,0-.68-.32-.66s-.48,0-.42-.29c-.06-.11,0-.3-.23-.25s-.22.14-.24.23Zm4,36.23c-.21.05-.55-.13-.71.12a.45.45,0,0,0,.14.61,1.88,1.88,0,0,0,1.06.84.61.61,0,0,0,.63-.62A1.41,1.41,0,0,0,423.66,92.63Zm.2-37.07c.19,0,.46.11.5-.07s-.18-.43-.37-.48a12.5,12.5,0,0,0-1.78-.62c-.56,0-1.16,0-1.25-.78-.07-.11-.14-.23-.35-.18s-.13.16-.06.27a4.35,4.35,0,0,0,.37.86c.21.35.44.59.8.29.13-.16.32-.11.48,0A5.06,5.06,0,0,1,423.86,55.56Zm-1.51,3.88a.79.79,0,0,0,.69,0,.28.28,0,0,0,.08-.36.56.56,0,0,0-.61-.25.88.88,0,0,1-.78-.38c-.05-.2-.23-.24-.46-.11s-.36.3-.31.51.12.31.3.36A4.45,4.45,0,0,1,422.35,59.44Zm2.19,31.09a1.61,1.61,0,0,0,.08.5c.16.14.29,0,.5-.07a2.81,2.81,0,0,1,.95,0,.51.51,0,0,0,.62-.14c0-.18.06-.27,0-.39a.58.58,0,0,0-.62-.24.53.53,0,0,1-.65-.06A.53.53,0,0,0,424.54,90.53Zm2.8,4,0-.18c0-.09.25-.23,0-.38s-.21,0-.32.11c-.07.28-.41.48-.31.89.07.12.16.14.36.09s.12-.07.14-.16Zm-4.18-43.71c.2,0,.31-.12.36-.3s.06-.27-.12-.32-.38,0-.43.19S423,50.72,423.16,50.86Zm.76-6c-.05-.2-.1-.41-.37-.47-.09,0-.27-.07-.23.13s.12.32.37.48C423.78,45,423.87,45.05,423.92,44.87Zm.9,5.9c.06-.27-.12-.31-.3-.36s-.57,0-.64.24a.53.53,0,0,0,.33.65C424.57,51.39,424.68,50.93,424.82,50.77Zm-1.2-10.7c.07.12-.2.44.07.5s.34-.2.41-.48.09-.36-.19-.43S423.67,39.89,423.62,40.07ZM432,70.33l3.21-13.4c.64-2.65-.32-5.09-3-6.11a.5.5,0,0,1-.41-.68,10,10,0,0,0,.54-2.28c.11-.46.32-.51.77-.4,1.55.38,3.19.77,4.81,1.25a2.5,2.5,0,0,1,1,.54c.34.18.39.38.3.75s-.2.43-.42.57c-.18,0-.39,0-.43.19s.34.18.43.2.11-.07.21-.05c1.06,0,1.06,0,.89,1.08a2.23,2.23,0,0,1-.26,1.1c-1,3.62-1.91,7.16-2.6,10.85-.61,2.94-1.38,5.74-2.17,8.64a7.77,7.77,0,0,0-.5,2.48,8.63,8.63,0,0,1-.54,2.67,40.39,40.39,0,0,0-1.18,4.53,5.51,5.51,0,0,1-1.12,2.24,2.19,2.19,0,0,1-2.72.51c-.16-.14-.32-.27-.26-.55,0-.09.07-.27.11-.45Zm-5.73-35.22c-.32.12-.71.12-.79.49s.18.43.34.56.51.32.55.52.05.21.16.14l.12-.07a2.29,2.29,0,0,1,.08-1.14C426.78,35.34,426.51,35.27,426.26,35.11ZM432,93.28c-.73-.18-1,0-1.11.6-.09.37.12.7-.15,1a.42.42,0,0,0,0,.56c.16.14.36.09.59,0l1.6-1.06c.25-.23.29-.41-.05-.59A1.74,1.74,0,0,0,432,93.28Zm.69-1.28c0-.18.06-.28-.12-.32s-.41.1-.45.28a.25.25,0,0,0,.21.34C432.5,92.34,432.63,92.18,432.68,92Zm-3.46-51.55c-.2,0-.46-.11-.5.08s.23.24.32.27c.3,0,.62.24,1,0C429.79,40.49,429.36,40.68,429.22,40.45Zm2.47-1.05c-.09,0-.41-.29-.5.08a.55.55,0,0,0,.19.81c.34.18.5.32.51.7a.4.4,0,0,0,.61.25.79.79,0,0,0,.7-.51c.07-.27-.21-.34-.48-.4s-.36-.09-.3-.36C432.44,39.49,432.17,39.42,431.69,39.4Zm.3-1.66c-.09,0-.27-.06-.32.12a3,3,0,0,0,.67.83c.18.05.21,0,.23-.14A.71.71,0,0,0,432,37.74Zm6.48,53.82c0-.19-.14-.23-.23-.25-.29,0-.68,0-.86.37,0,.09.14.23.32.27S438.22,91.79,438.47,91.56Zm3.73-4.7c.05-.19.09-.37-.11-.32-.39,0-.2.43-.45.66-.12.07-.07.28,0,.21C442.07,87.4,442.14,87.13,442.2,86.86Zm-1.15-13.3c-.18,0-.2,0-.25.23s.19.43.46.5c.07.11.25.16.3,0S441.19,73.79,441.05,73.56Zm1.51-3.49c-.18,0-.43-.2-.57,0s-.13.16,0,.18a.59.59,0,0,0,.62.25c.09,0,.09,0,.2,0s.39,0,.43-.19-.27-.06-.46-.11Zm-.63-1.4c.07.11-.17.34.08.49l.11-.06c.22-.53.45-.28.66.06a.83.83,0,0,0,.66.06c.21,0,.23-.14.25-.23a.58.58,0,0,0-.48-.41l-.42-.29C442.29,68,442.07,68.12,441.93,68.67Zm1.36,5.62c-.19,0-.3,0-.32.12s.07.5.32.66a.21.21,0,0,0,.23-.14A.9.9,0,0,0,443.29,74.29ZM441.86,40c.07-.27-.07-.5-.19-.43-.38,0-.84-.11-1.22-.1-.19,0-.41.09-.27.32a1.44,1.44,0,0,0,1,.81C441.41,40.67,441.63,40.15,441.86,40Zm2.82,37.32.13-.55c-.05-.2-.07-.5-.35-.57a.44.44,0,0,0-.56.35,3.11,3.11,0,0,0-.22.91c-.09.37.16.52.53.61s.25-.23.38-.39Zm.47-12a2.62,2.62,0,0,0-.19-.82c-.11-.31-.45-.11-.66-.06l-.18,0c-.36-.09-.48,0-.47.37a.62.62,0,0,0,.5.7c.19,0,.39,0,.33.27s-.14.16-.34.2c-.48,0-.32.12-.09.37,0,.09.07.11.05.2.14.23.18.43.41.3s.34-.21.31-.51,0-.38.13-.55S445.18,65.59,445.15,65.29Zm.81,3.09a.64.64,0,0,0-.48.36.9.9,0,0,0,.56.91c.27.06.38,0,.54-.26A1.23,1.23,0,0,0,446,68.38Zm-1.19-28.06c-.29,0-.63-.15-.72.22s.28.45.55.51a2,2,0,0,1,.71.27c.16.14.27.07.38,0a.28.28,0,0,0,0-.39A4.45,4.45,0,0,0,444.77,40.32Zm2.48,13.42a.3.3,0,0,0-.34.21.7.7,0,0,0,.28.45c.18.05.22-.14.27-.32S447.52,53.81,447.25,53.74Zm.28-4a.61.61,0,0,0-.24-.64c-.27-.06-.43.19-.47.37a.52.52,0,0,0,.23.64C447.33,50.19,447.46,50,447.53,49.76ZM449.07,59a1.09,1.09,0,0,0,0-.57c.09-.36-.16-.52-.5-.7a.46.46,0,0,0-.6.05,1.31,1.31,0,0,0-.3,1.28c.18.43.39.77.78.76S448.89,59.34,449.07,59Zm0-9.35a1.78,1.78,0,0,0,1.19-.58.45.45,0,0,0-.05-.59c-.11-.32-.34-.18-.54-.13a.55.55,0,0,1-.64-.15c-.3-.36-.46-.11-.64.23A.91.91,0,0,0,449.1,49.65Zm1.1,4.22a.89.89,0,0,0,0-.48.19.19,0,0,0-.14-.22.2.2,0,0,0-.22.14,2.71,2.71,0,0,1-.63,1c-.11.07-.06.28,0,.39s.25.16.27.06C449.69,54.42,450.1,54.33,450.2,53.87Zm.28-2c.09-.36,0-.77-.28-.84s-.54.26-.61.53,0,.57.33.66A.44.44,0,0,0,450.48,51.91Z"/><path class="cls-1" d="M446.41,100.1a21,21,0,0,1,2.28-3.45,3.54,3.54,0,0,1,.63-.72.84.84,0,0,1,1.17,0l.76.75a.85.85,0,0,1,0,1.3c-1.46,2.2-1.84,4.78-2.07,7.46a21.31,21.31,0,0,0-.06,2.76,1,1,0,0,0-.06.5c.14.52-.78.43-.59.85s.64.58.7,1.05a13.94,13.94,0,0,0,.24,1.86,6.45,6.45,0,0,0,.86,2.86c.07.25.3.6-.13.79a1.15,1.15,0,0,1-1.37-.24c-.12-.17-.11-.38-.27-.48l-.24-.14a.18.18,0,0,0-.14.25,4.57,4.57,0,0,0,1.25,2.54c.2.22.38.1.43-.19.05-.08-.07-.25,0-.42a.61.61,0,0,1,.58-.64c.39-.1.54.2.69.5.38.86,1,1.73,1.42,2.64a9.1,9.1,0,0,0,1.6,2.3A26,26,0,0,0,462,128a12.79,12.79,0,0,0,3.13,1.13c.17.09.46.15.45.36s-.3.15-.51.14a16.28,16.28,0,0,1-7.36-.72c-6.15-2.08-10.65-5.92-12.93-12.17a19.76,19.76,0,0,1,0-13.27A17.29,17.29,0,0,1,446.41,100.1Zm1.19,10.48c-.12-.18-.25-.14-.21,0a.63.63,0,0,0,.38.65.22.22,0,0,0,.26-.07C448.26,110.74,447.71,110.75,447.6,110.58Zm.51-1.86c-.08,0,0-.13-.12-.18l-.12,0c-.1.16,0,.21.07.25S448.07,108.8,448.11,108.72Zm.36-5.4c-.09.16,0,.34.19.43s.26-.07.3-.15,0-.34-.15-.31C448.57,103.16,448.52,103.24,448.47,103.32Zm45.58-35.4a17.94,17.94,0,0,1,9.22,11.69,18.51,18.51,0,0,1,.88,6.64c0,.12-.06.29,0,.42-.06,1-.28,1.24-1.28,1.11a9.6,9.6,0,0,1-1.54-.13c-1.34-.11-2.83-.52-4.13-.5a25.87,25.87,0,0,1-5.39-.58c-.08,0-.08,0-.21,0-.37-.1-.66-.16-.69-.49s.19-.33.41-.53.56-.43.83-.71c.38-.11.36-.44.33-.78,0-2.19-2.72-5.85-5-6.26-1.71-.22-3.26-.34-4.7.68a6.15,6.15,0,0,0-2.59,6.29,8.07,8.07,0,0,0,.93,2.36c.92,1.6,1.94,3,2.95,4.68,1,1.44,2.07,3,3.07,4.65a21.56,21.56,0,0,1,2,17.74c-2.58,7.6-8.05,11.93-15.93,13.29a6.85,6.85,0,0,0-1.95.4,3.84,3.84,0,0,1-1.72,0,25.43,25.43,0,0,1-6.79-1.9,22.93,22.93,0,0,1-6.51-4.88,19.32,19.32,0,0,1-4.37-8.07,9.28,9.28,0,0,1-.58-3.35,33.05,33.05,0,0,1,.39-6.78,9.76,9.76,0,0,1,1.84-4,18.89,18.89,0,0,0,1.7-2.81,23.38,23.38,0,0,1,1.58-2c.66-.6,1-.62,1.59,0s1,1.1,1.55,1.63c2,2.12,4,4.2,6,6.4.28.27.69.5.59.87s-.65.39-1,.28c-1,0-1.65.25-1.95,1.16a8.07,8.07,0,0,0,.81,7.9,7.4,7.4,0,0,0,7.46,3.57,7.14,7.14,0,0,0,5.75-4.07c1.6-3.19,1.21-6.32-.39-9.38a31.71,31.71,0,0,0-2.78-4A45.91,45.91,0,0,1,469,88.34a8.59,8.59,0,0,1-.47-2.21A18.37,18.37,0,0,1,470.68,75l.14-.25c1.21-3.09,3.7-5,6.64-6.58A16.63,16.63,0,0,1,494.05,67.92Zm-40.69,53.79a.24.24,0,0,0-.38.11c-.05.08-.14.24,0,.33s.25.14.34,0S453.48,121.88,453.36,121.71Zm3.34-14.27c.31-.36.16-.67-.2-1a.5.5,0,0,0-.77.21c-.26.28,0,.84.37,1.07S456.56,107.68,456.7,107.44Zm-.19,2.8c.13,0,.13,0,.21,0a.33.33,0,0,1,0-.21c-.08,0-.12,0-.2,0S456.56,110.16,456.51,110.24Zm.17,4.08c.08.05.16.1.21,0s.14-.24,0-.33a.33.33,0,0,0-.18.11c-.13,0-.17.12,0,.21Zm1.58-1.26a.34.34,0,0,0-.14-.51c-.08,0-.17-.09-.21,0-.14.24-.11.37.06.46S458.21,113.14,458.26,113.06Zm.45-7.07c-.25-.14-.46-.15-.6.09a.26.26,0,0,0,.11.39c.25.13.54.19.64-.18C458.91,106.21,458.79,106,458.71,106Zm-.07,7.72a.75.75,0,0,0,.52-.14c.09-.16,0-.29,0-.34l-.43.19A.38.38,0,0,0,458.64,113.71Zm3.09,3.69-.08-.05c-.53.56-1.43.81-1.68,1.64-.2.53.08.8.47.69a7.48,7.48,0,0,0,1.2-.61.3.3,0,0,0,.23-.41,3.05,3.05,0,0,1,0-1.09C461.89,117.49,461.81,117.44,461.73,117.4Zm-1.38-1.75c0-.09,0-.21-.2-.22s-.13,0-.14.24c0,0,0,.13.08,0C460.26,115.81,460.3,115.73,460.35,115.65Zm15.11-4.81a5.05,5.05,0,0,1-3.88,2.87h-.76c-.34,0-.58-.12-.43-.57a7,7,0,0,0,.32-1.33,10.29,10.29,0,0,0-1.11-7,4,4,0,0,1-.41-1.74,3.3,3.3,0,0,0-1.29-2.67c-.65-.58-1.45-1.26-2-1.92-4.67-5.44-6.42-11.5-4.05-18.34a16.54,16.54,0,0,1,8.81-10.42,2.21,2.21,0,0,1,.56-.23c.17-.11.35-.23.47-.06l-.19.33a22.11,22.11,0,0,0-5.14,11.74,5.53,5.53,0,0,0-.48,1.24c0,.42.29.81.35,1.28s0,1.3,0,1.84a16.13,16.13,0,0,0,1,3.92,28.22,28.22,0,0,0,3.39,6.56c.16.3.39.65.58,1.08a.76.76,0,0,1-.09.92c-.19.32-.16.66-.3.9s0,.42.22.56.34,0,.52-.14c.74-.55.78-.63,1.29.19s1.42,1.67,1.65,3c-.05.09.15.31.31.4a2.65,2.65,0,0,1,1,1.52A6.75,6.75,0,0,1,475.46,110.84Zm-12.79,5.47a.38.38,0,0,1,.21,0c.09-.16,0-.21-.07-.25a.2.2,0,0,0-.26.07A.32.32,0,0,0,462.67,116.31ZM466,123c-.08,0,0-.13-.11-.17a.33.33,0,0,0-.18.11c0,.09,0,.21.12.18A.32.32,0,0,0,466,123Zm2.86-3.34c.1-.16.14-.24,0-.33a1.29,1.29,0,0,0-1.12-.31c-.13,0-.14.24-.1.37a.7.7,0,0,0,.6.45A1.11,1.11,0,0,0,468.83,119.69ZM473,84.22c.17.09.41.23.55,0s0-.41-.14-.51-.41-.23-.63,0S472.73,84.08,473,84.22Zm1.59-1.47c.19-.33,0-.63-.25-.9s-.61-.24-.85.17,0,.63.17.85A.72.72,0,0,0,474.56,82.75Zm.13,39c-.21,0-.57-.33-.67,0-.2.53-.43.94-.58,1.4a.24.24,0,0,0,.11.38.19.19,0,0,0,.25-.07,1.18,1.18,0,0,1,1-.62.82.82,0,0,0,.41-.53C475.18,122,475,121.9,474.69,121.72Zm-1.18-43c0,.13.08,0,.13,0a.1.1,0,0,0,0-.13.27.27,0,0,0-.17.12Zm.82,6.93c0-.21-.15-.3-.32-.39s-.25.07-.31.36c-.05.08.12.17.28.27S474.27,85.92,474.33,85.63ZM475.38,84c0-.21,0-.33-.11-.38a.41.41,0,0,0-.43.19c0,.08-.14.24,0,.34S475.21,84.08,475.38,84Zm.86,34.65c-.41-.23-1.13-.1-1.23.27-.1.16,0,.34.18.43.38.1.83.25,1.14-.11C476.55,119,476.35,118.78,476.24,118.61Zm.05-36.07a3.66,3.66,0,0,0,.53-1.32.19.19,0,0,0-.07-.25c-.12-.17-.21,0-.25.07a2.47,2.47,0,0,0-.86,1.13c-.14.25-.24.62.08.8s.4-.31.57-.43Zm.55-9a.33.33,0,0,0-.06-.46c-.37-.1-.59.09-.78.42-.05.08,0,.34.15.3C476.48,74,476.7,73.83,476.84,73.58Zm.74,5.17c-.16-.1-.21,0-.3.15a.19.19,0,0,0,.07.25.29.29,0,0,0,.38-.1c0-.21,0-.21-.15-.3Zm-.18,40.08c0,.09-.23.41.32.4s.61.24.85.59c0,.21.15.3.36.31s.29.06.34,0a.11.11,0,0,0,0-.21,4.15,4.15,0,0,1-.55-1.5c0-.34-.4-.44-.75-.21A7.27,7.27,0,0,0,477.4,118.83Zm1.87-45.16a.51.51,0,0,0,.77-.21c.31-.37.27-1.25.06-1.26a1.57,1.57,0,0,0-1,.49C478.85,72.89,479,73.53,479.27,73.67Zm1.26,44a.35.35,0,0,0-.15-.51c-.16-.09-.32-.18-.46.06s-.06.29.19.43S480.35,117.81,480.53,117.69Zm-.32-1.15c.16.1.29.06.25-.07s.09-.16,0-.21a.26.26,0,0,0-.33,0A.18.18,0,0,0,480.21,116.54Zm.57,2.8,0-.12c-.08,0-.13,0-.17.11l0,.13C480.68,119.51,480.73,119.43,480.78,119.34Zm.33-48c.33.18.66.16.81-.29.05-.09.06-.3-.07-.26a1.11,1.11,0,0,0-.89.25C480.83,71.1,481,71.32,481.11,71.37Zm-.08,26c.08,0,.16.09.21,0s0-.08,0-.21a.21.21,0,0,0-.26.07A.09.09,0,0,0,481,97.4Zm1.26,17c-.05.09-.13,0-.17.12l.16.09.05-.08Zm.45-5.35a.47.47,0,0,0-.14-.72.25.25,0,0,0-.38.11.58.58,0,0,0,0,.67A.28.28,0,0,0,482.74,109ZM490,88.45a1.22,1.22,0,0,0,1,.35c1.47.07,3,.49,4.42.56a.9.9,0,0,1,.46.15.13.13,0,0,1,.16.09c0,.13-.19.33-.23.41a3,3,0,0,1-.92-.09c-3-.28-6.05-.73-9-1a1.64,1.64,0,0,1-1.3-.74c-.19-.43-.34-.73-.11-1.14a1.65,1.65,0,0,0,.24-1.37,10.72,10.72,0,0,0-1.26-3.3,1.09,1.09,0,0,1,0-1.59,3.38,3.38,0,0,1,4.78.12l.59.66a2.48,2.48,0,0,1,1,1.44c.27.47.13.72-.26,1C487.85,85.53,488.05,87.47,490,88.45Zm-5.13,23c.19-.54.13-1-.19-1.19a1.5,1.5,0,0,0-1.27.15c-.27.28.2,1,.69,1.25A.54.54,0,0,0,484.84,111.41Zm-.23-7c-.08,0-.08,0-.21,0a.3.3,0,0,1,0,.21c.08,0,.17.1.26-.07Zm1.37,8.43a.65.65,0,0,0,.07-.5.44.44,0,0,0-.41-.23,1.38,1.38,0,0,1-.72.13c-.17.12-.46.06-.44.4s.4.44.61.45A.92.92,0,0,0,486,112.81Zm-.56-3.76a1.11,1.11,0,0,0,1.08-.58.24.24,0,0,0-.23-.35c-.38-.1-.74-.41-1,.2C485.28,108.53,485.18,108.91,485.42,109.05Zm1.84-38.83c-.08,0-.21,0-.18.11l.09,0a.08.08,0,0,0,.12,0C487.34,70.26,487.34,70.26,487.26,70.22Zm2.56,3.28c.2.22.52.4.71.08s-.22-.77-.54-1a.52.52,0,0,0-.72.13c-.11.37.27.47.47.69Zm6.56,7.81a.49.49,0,0,1-.33,0c-.19.32.08.8.29.81s.29.06.3-.15C496.83,81.67,496.63,81.45,496.38,81.31Zm1.83,2.11c.18-.33.24-.62-.09-.8a.93.93,0,0,0-.93.12c-.22.2,0,.75.25.89S498,83.62,498.21,83.42Zm-.45-1.87c.59-.1,1.08.18,1.63.17.08,0,.17-.12.14-.25a.19.19,0,0,0-.08-.25,3.4,3.4,0,0,0-1.71-.22c-.08,0-.17.12-.13.25S497.64,81.38,497.76,81.55Zm.88-1.55a.89.89,0,0,0,.93-.12c.3-.15.14-.46.07-.71l-.29-.81a.84.84,0,0,0-.78-.34c-.26.07-.51.14-.6.31A2.36,2.36,0,0,0,498.64,80Z"/><text class="cls-2" transform="translate(185.45 123.33)">e<tspan class="cls-3" x="11.05" y="0">v</tspan><tspan x="24.54" y="0">Ent center</tspan></text></svg>